<svg width="95" height="95" viewBox="0 0 95 95" fill="none" xmlns="http://www.w3.org/2000/svg">
<g id="Group 1255">
<rect id="Rectangle 103" width="95" height="95" rx="10" fill="#111111"/>
<path id="Vector" d="M37.4879 64.2319C37.3279 64.5839 37.1839 64.7919 37.0559 64.8559C36.9599 64.9199 36.7839 64.9519 36.5279 64.9519H31.6799C31.4559 64.9519 31.2799 64.9199 31.1519 64.8559C31.0559 64.7919 30.9279 64.5839 30.7679 64.2319L17.9999 29.1439C17.8079 28.5999 17.7759 28.2799 17.9039 28.1839C18.0319 28.0559 18.3839 27.9919 18.9599 27.9919H23.6159C23.9679 27.9919 24.2079 28.0399 24.3359 28.1359C24.4639 28.1999 24.5919 28.4079 24.7199 28.7599L34.0319 56.2159L43.5359 28.7599C43.6639 28.4079 43.7919 28.1999 43.9199 28.1359C44.0799 28.0399 44.3359 27.9919 44.6879 27.9919H49.3919C49.9359 27.9919 50.2559 28.0559 50.3519 28.1839C50.4479 28.3119 50.3999 28.6319 50.2079 29.1439L37.4879 64.2319ZM69.5047 64.9039C69.1527 64.9039 68.9287 64.8719 68.8327 64.8079C68.7367 64.7439 68.5767 64.5359 68.3527 64.1839L58.7047 49.4479L56.1127 52.3279V63.9919C56.1127 64.3759 56.0327 64.6319 55.8727 64.7599C55.7127 64.8879 55.4727 64.9519 55.1527 64.9519H50.5447C50.1926 64.9519 49.9366 64.8879 49.7767 64.7599C49.6487 64.6319 49.5847 64.3759 49.5847 63.9919V28.9519C49.5847 28.3119 49.9047 27.9919 50.5447 27.9919H55.1527C55.7927 27.9919 56.1127 28.3119 56.1127 28.9519V43.1599L67.3927 28.7119C67.5527 28.5519 67.6807 28.4239 67.7767 28.3279C67.8727 28.2319 68.0647 28.1839 68.3527 28.1839H73.7287C74.8487 28.1839 75.0727 28.5839 74.4007 29.3839L62.5447 44.3599L75.6487 63.8959C76.1287 64.5679 75.9207 64.9039 75.0247 64.9039H69.5047Z" fill="#DCDCDC"/>
</g>
</svg>
