<?xml version="1.0" standalone="no"?>
<!DOCTYPE svg PUBLIC "-//W3C//DTD SVG 1.1//EN" "http://www.w3.org/Graphics/SVG/1.1/DTD/svg11.dtd" >
<svg xmlns="http://www.w3.org/2000/svg" xmlns:xlink="http://www.w3.org/1999/xlink" version="1.1">
<metadata>
Created by FontForge 20201107 at Fri Mar 24 19:38:57 2017
 By 
2017 Iconian Fonts www.iconian.com
</metadata>
<defs>
<font id="ConcielianClassicBold" horiz-adv-x="911" >
  <font-face 
    font-family="Concielian Classic Bold"
    font-weight="700"
    font-stretch="normal"
    units-per-em="1000"
    panose-1="0 0 4 0 0 0 0 0 0 0"
    ascent="800"
    descent="-200"
    x-height="363"
    cap-height="538"
    bbox="-322 -163 1751 853"
    underline-thickness="50"
    underline-position="-105"
    unicode-range="U+0020-2122"
  />
<missing-glyph horiz-adv-x="500" 
 />
    <glyph glyph-name=".notdef" horiz-adv-x="500" 
 />
    <glyph glyph-name=".null" horiz-adv-x="0" 
 />
    <glyph glyph-name="nonmarkingreturn" horiz-adv-x="500" 
 />
    <glyph glyph-name="space" unicode=" " horiz-adv-x="472" 
 />
    <glyph glyph-name="exclam" unicode="!" horiz-adv-x="276" 
d="M209 128h-203l-94 -130h203zM281 234l213 304h-204l-75 -103l-184 -258h205z" />
    <glyph glyph-name="quotedbl" unicode="&#x22;" horiz-adv-x="464" 
d="M471 395l150 212h-152l-147 -212h149zM245 397l151 212h-153l-146 -212h148z" />
    <glyph glyph-name="numbersign" unicode="#" horiz-adv-x="1037" 
d="M1039 356h-226l-40 -26h240l-108 -71h-243l-190 -122h-172l192 122h-113l-191 -122h-170l190 122h-231l110 71h231l43 26h-247l105 72h251l195 122h169l-190 -122h109l193 122h170l-191 -122h222zM532 356l-41 -26h111l41 26h-111z" />
    <glyph glyph-name="dollar" unicode="$" horiz-adv-x="912" 
d="M-119 -2l97 100h270l10 8l97 124h-195q-68 0 -68 41q0 17 20 46l93 125q68 83 192 95q32 4 65.5 6t67.5 2h61l59 75h185l-52 -75h320l-82 -99h-300l-87 -115h207q74 0 74 -42q0 -11 -5 -21t-13 -22l-80 -113l-25 -34h1q-57 -101 -304 -101h-123l-64 -80h-188l62 80h-295z
M519 97q52 1 69 21l3 3l78 109h-119l-109 -132zM502 446q-55 0 -99 -28l-69 -87h102l86 115h-20z" />
    <glyph glyph-name="percent" unicode="%" horiz-adv-x="1075" 
d="M551 339l-67 -118q-1 -4 -6 -10l390 200h136l7 -24l-283 -145q8 1 15.5 1.5t15.5 0.5h259q81 0 81 -46q0 -14 -7 -27l-67 -119q-15 -25 -44 -38t-77 -13h-257q-75 0 -83 41v6q0 14 7 24l68 121l3 6l-387 -198h-137l-7 24l283 145q-4 -1 -7.5 -1.5t-8.5 -0.5h-17h-257
q-76 0 -82 42v6q0 6 1.5 13t6.5 13l-1 -1l68 120q30 50 121 50h258q39 0 62 -14l-1 1q21 -11 21 -33q0 -13 -7 -26zM326 247q22 0 25 5l45 81h-11h-131q-22 0 -26 -6h1l-45 -80h142zM926 165h-131q-21 0 -25 -6l-45 -79h143q21 0 25 4l45 81h-12zM947 181q-1 -1 -1 -2z
M405 349q-1 -1 -1 -2z" />
    <glyph glyph-name="ampersand" unicode="&#x26;" horiz-adv-x="1076" 
d="M1115 196l-224 -61l182 -106l-198 -51l-177 104l-309 -82q-69 -19 -125 -19q-18 0 -51 3q-17 5 -29 10t-19 9l-152 90h1q-9 3 -16.5 9t-15.5 14l-9 9q-5 7 -6.5 13.5t-1.5 11.5q0 28 40 50q11 7 23.5 11.5t26.5 9.5l279 74l-36 22l2 -2q-14 5 -27 29q0 21 10 40
q17 32 28 50.5t15 23.5q50 65 208 65h192q150 0 150 -64q0 -15 -10 -32l-40 -74q-19 -32 -79 -49l-99 -26l121 -71l234 62zM352 95q1 0 2.5 0.5t2.5 0.5l214 58l-118 71l-140 -34q-37 -10 -68 -18.5t-57 -16.5q8 -5 18 -10.5t23 -13.5q14 -8 30.5 -18t36.5 -21h-2l7 -2
q3 -1 10 -1q1 0 8 1t16 2q2 0 5 0.5t5 0.5q4 0 7 1zM698 437v-1q1 1 1 5q0 1 -1 2q-5 5 -24 5l-142 1q-12 0 -30 -5h1q-8 -3 -11 -3q1 -1 2 -1l-15 -25l-6 1l-28 -48l75 -41l136 36z" />
    <glyph glyph-name="quotesingle" unicode="'" horiz-adv-x="229" 
d="M232 396l143 212h-144l-139 -212h140z" />
    <glyph glyph-name="parenleft" unicode="(" horiz-adv-x="427" 
d="M176 -23l68 105q-78 5 -83 11l229 347q47 35 79 35h11l61 105q-94 0 -157 -9q-117 -29 -182 -104l-229 -355q-8 -18 -8 -35q0 -13 3 -25q21 -75 208 -75z" />
    <glyph glyph-name="parenright" unicode=")" horiz-adv-x="427" 
d="M314 580l-68 -104q78 -5 82 -13l-229 -346q-43 -34 -77 -34h-12l-61 -106q46 0 85 2.5t71 7.5q117 28 184 103l227 354q9 19 9 37q0 9 -3 24q-23 75 -208 75z" />
    <glyph glyph-name="exclamdown" unicode="*" horiz-adv-x="506" 
d="M288 293h-86l23 53l-85 -38h-101l-6 24l200 88l-71 100h111l17 -22l11 25h89l-19 -41l90 38h102l5 -24l-200 -89l83 -99h-135l-13 20z" />
    <glyph glyph-name="plus" unicode="+" horiz-adv-x="893" 
d="M929 253h-388l-79 -140h-120l80 140h-388l37 68h390l81 142h119l-81 -142h387z" />
    <glyph glyph-name="comma" unicode="," horiz-adv-x="264" 
d="M195 116h-190l-88 -118h84l-48 -64h114z" />
    <glyph glyph-name="hyphen" unicode="-" horiz-adv-x="574" 
d="M548 137l77 74h-541l-84 -74h548z" />
    <glyph glyph-name="period" unicode="." horiz-adv-x="264" 
d="M196 104h-191l-88 -106h191z" />
    <glyph glyph-name="slash" unicode="/" horiz-adv-x="942" 
d="M146 -4l937 570h-203l-933 -570h199z" />
    <glyph glyph-name="zero" unicode="0" horiz-adv-x="909" 
d="M790 99l1 1q-57 -102 -304 -102h-314q-183 0 -205 67q-4 9 -4 23q0 18 8 31l233 316q72 70 189 96q32 3 65.5 5t68.5 2h309q29 -1 54.5 -3.5t46.5 -5.5q68 -21 77 -78v-35zM761 440h-260q-28 0 -52.5 -7t-46.5 -20l-239 -315q-1 -1 -1 -2v-1q0 1 19 1h25l311 -1
q52 2 71 21l-1 -2l224 306q-14 15 -50 20zM547 220q-19 -5 -36 -7.5t-34 -4.5q-20 2 -38.5 4.5t-33.5 7.5q-32 14 -32 39q0 38 62 53q43 12 75 12q100 0 100 -49q0 -40 -63 -55z" />
    <glyph glyph-name="one" unicode="1" horiz-adv-x="276" 
d="M262 228l131 186l86 124h-197l-169 -57l-67 -81h129l-201 -278l-89 -124h215z" />
    <glyph glyph-name="two" unicode="2" horiz-adv-x="909" 
d="M596 125h210q-73 -127 -319 -127h-314q-183 0 -205 67q-4 9 -4 23q0 18 8 31l108 147q70 61 221 61h442l68 93q-14 15 -50 20h-273l55 98h294q29 -1 54.5 -3.5t46.5 -5.5q68 -21 77 -78v-35l-142 -189h-613l-97 -129v-1l-1 -2v-1q1 4 31 2h-1l325 -1q52 1 69 21z" />
    <glyph glyph-name="three" unicode="3" horiz-adv-x="909" 
d="M458 98h-244q-44 5 -61 32h-194v-45q9 -56 77 -77q21 -4 46.5 -6.5t55.5 -3.5h308q35 0 68.5 2t65.5 6q116 24 190 95l233 316q7 13 7 31q0 5 -1 11.5t-3 11.5q-23 67 -204 67h-315q-249 0 -315 -123h209q22 24 77 29h326q28 -1 28 -3v-3l-1 -1v1l-98 -128h-443l-79 -100
h450l-68 -85q-50 -27 -115 -27z" />
    <glyph glyph-name="four" unicode="4" horiz-adv-x="909" 
d="M817 429l68 107h220l-93 -124l-198 -281l-26 -34l-72 -99h-218l87 116l4 4l77 109h-618l157 208l79 95h204l-86 -117l-69 -86h410l75 102h-1z" />
    <glyph glyph-name="five" unicode="5" horiz-adv-x="906" 
d="M516 95q51 1 68 21l3 3l77 108h-505q-67 0 -67 40q0 19 19 45l93 124v-1l73 103h590l-84 -98h-360l-23 -27h1l-69 -86h504q73 0 73 -42q0 -10 -5 -20t-13 -22l-79 -112l-26 -34l1 1q-55 -100 -301 -100h-314q-182 0 -204 67q-4 9 -4 20q0 18 18 38h197l-17 -24v-2h8h9
t12 -1h-1z" />
    <glyph glyph-name="six" unicode="6" horiz-adv-x="909" 
d="M814 131l-25 -34l1 1q-55 -100 -303 -100h-314q-183 0 -205 67q-4 9 -4 23q0 18 8 31l233 316q72 70 189 96q32 3 65.5 5t68.5 2h309q29 -1 54.5 -3.5t46.5 -5.5q68 -21 77 -78v-45h-193q-19 30 -63 34h-258q-28 0 -52.5 -7t-46.5 -20l-69 -86h625l-45 -56v1zM517 95
q52 1 69 21l3 3l78 108h-407l-97 -129v-1l-1 -2q0 1 26 1h8z" />
    <glyph glyph-name="seven" unicode="7" horiz-adv-x="901" 
d="M804 420l-222 -306l-82 -116h210l73 101l223 317v35q-9 57 -76 78q-21 3 -46 5.5t-55 3.5h-306q-35 0 -67.5 -2t-64.5 -5q-60 -13 -113 -42.5t-101 -80.5h214q47 32 104 32h257q38 -5 52 -20z" />
    <glyph glyph-name="eight" unicode="8" horiz-adv-x="909" 
d="M500 440h261q36 -5 50 -20l-68 -93h-410l69 86q21 13 45 20t53 7zM589 119l-3 -3q-17 -20 -69 -21l-325 1h1q-30 2 -31 -2v1v2l1 2v-1l97 129h407zM814 131l201 285v35q-9 57 -77 78q-21 3 -46.5 5.5t-54.5 3.5h-309q-35 0 -68.5 -2t-65.5 -5q-116 -24 -189 -96
l-233 -316q-8 -13 -8 -31q0 -14 4 -23q22 -67 205 -67h314q248 0 303 100l-1 -1z" />
    <glyph glyph-name="nine" unicode="9" horiz-adv-x="909" 
d="M385 418l2 2q9 10 26.5 17t44.5 9h290q64 -4 64 -5v-3l-1 -1v1l-98 -128h-406zM160 405l-99 -141v1l-45 -55h625l-69 -87q-43 -25 -102 -25h-258q-23 2 -37 10t-23 22h-193v-45q9 -56 77 -77q21 -4 46.5 -6.5t55.5 -3.5h308q35 0 68.5 2t65.5 6q116 24 190 95l233 316
q7 13 7 31q0 5 -1 11.5t-3 11.5q-23 67 -204 67h-315q-248 0 -303 -100l1 1z" />
    <glyph glyph-name="colon" unicode=":" horiz-adv-x="274" 
d="M342 316h-199l-92 -125h199zM205 124h-199l-92 -126h199z" />
    <glyph glyph-name="semicolon" unicode=";" horiz-adv-x="274" 
d="M342 322h-199l-92 -128h199zM204 126h-198l-92 -128h87l-50 -70h119z" />
    <glyph glyph-name="less" unicode="&#x3c;" horiz-adv-x="799" 
d="M812 467l-538 -175l346 -176l-52 -94l-475 244l38 68l744 247z" />
    <glyph glyph-name="equal" unicode="=" horiz-adv-x="732" 
d="M731 307l71 97h-611l-65 -97h605zM648 153l66 101h-609l-74 -101h617z" />
    <glyph glyph-name="greater" unicode="&#x3e;" horiz-adv-x="679" 
d="M697 257l-743 -245l63 114l537 173l-345 178l52 94l474 -246z" />
    <glyph glyph-name="question" unicode="?" horiz-adv-x="901" 
d="M520 127h-206l-96 -129h209zM929 309h1l76 107v35q-9 57 -76 78q-21 3 -46.5 5.5t-54.5 3.5h-306q-35 0 -68 -2t-65 -5q-58 -13 -109 -42.5t-99 -80.5h208q50 32 105 32h257q36 -4 52 -20l-33 -45q-35 -48 -149 -48h-172l-99 -150h203l36 50h142q134 0 197 82z" />
    <glyph glyph-name="at" unicode="@" horiz-adv-x="909" 
d="M559 305h5l8 16h-235l-55 -65h1l-120 -158v-1q2 2 32 -1l322 -1q52 2 71 21l-1 -2l224 306q-14 15 -52 20h-537q28 33 70 56t102 35q32 3 65.5 5t68.5 2h309q29 -1 54.5 -3.5t46.5 -5.5q68 -21 77 -78v-35l-225 -317l1 1q-57 -102 -304 -102h-314q-183 0 -205 67
q-4 9 -4 23q0 17 10 36l216 271h398q107 0 114 -61l-101 -144q-35 -48 -95 -53h-117q-77 0 -105 49l71 96q22 22 65 24zM511 224l-1 -1l9 12l-101 1l-15 -25h5h77q19 3 26 13z" />
    <glyph glyph-name="A" unicode="A" 
d="M813 420l-68 -93h-411l67 84q50 29 101 29h258q36 -4 53 -20zM590 118l-4 -4l-87 -116h219l73 99l25 34l201 285v35q-9 57 -77 78q-21 3 -46.5 5.5t-55.5 3.5h-309q-35 0 -68.5 -2t-65.5 -5q-115 -24 -190 -96l-231 -313l1 1l-104 -125h217l72 89q2 5 2.5 6.5t0.5 5.5
l98 128h407z" />
    <glyph glyph-name="B" unicode="B" 
d="M837 160l-46 -63l1 1q-55 -100 -304 -100h-613l99 125v-1l231 313l83 103h550q30 -1 55.5 -3.5t46.5 -5.5q68 -21 77 -78v-35l-59 -79q-25 -37 -122 -77q17 -23 17 -49t-16 -51zM518 95q52 1 69 21l3 3l59 82q9 13 9 20q0 6 -30 6h-367l-100 -131zM762 440h-338l-20 -27
l-70 -86h347q64 0 99 48l33 45q-15 15 -51 20z" />
    <glyph glyph-name="C" unicode="C" 
d="M502 440q-28 0 -52.5 -7t-46.5 -20l-239 -314v1q0 -1 -1 -1v-1q-1 -1 -1 -4q2 4 31 2h614l-89 -98h-545q-184 0 -205 67q-4 9 -4 23q0 18 8 31l233 316q73 70 190 96q32 3 65.5 5t68.5 2h578l-95 -98h-510zM163 98v1v-1z" />
    <glyph glyph-name="D" unicode="D" 
d="M791 99l1 1q-56 -102 -304 -102h-611l97 125v-1l231 313l83 103h550q30 -1 55.5 -3.5t46.5 -5.5q68 -21 77 -78v-35zM813 420q-17 16 -53 20h-333l-24 -27h1l-241 -315l1 2l-4 -6h355q55 1 74 22l-1 -2z" />
    <glyph glyph-name="E" unicode="E" 
d="M502 440q-28 0 -52.5 -7t-47.5 -20l-69 -86h452l-79 -100h-445l-98 -129v-1l-1 -2q0 1 24 1h622l-93 -98h-542q-184 0 -205 67q-4 9 -4 23q0 18 8 31l233 316q73 70 190 96q32 3 65.5 5t68.5 2h573l-89 -98h-511z" />
    <glyph glyph-name="F" unicode="F" horiz-adv-x="912" 
d="M502 440q-28 0 -52.5 -7t-46.5 -20l-69 -86h452l-79 -100h-446l-97 -129v1l-2 -3l-70 -98h-210l92 124l231 313q73 70 190 96q32 3 66 5t69 2h574l-89 -98h-513z" />
    <glyph glyph-name="G" unicode="G" 
d="M791 99l1 1q-56 -102 -304 -102h-315q-184 0 -205 67q-4 9 -4 23q0 18 8 31l233 316q73 70 190 96q32 3 65.5 5t68.5 2h578l-95 -98h-510q-28 0 -52.5 -7t-46.5 -20l-240 -315q-1 -1 -1 -2v-1v-1q1 4 32 2l324 -1q53 2 70 20l88 110h-189l81 102h385l-50 -72z" />
    <glyph glyph-name="H" unicode="H" horiz-adv-x="912" 
d="M591 118l-4 -4l-85 -116h215l75 99l25 34l199 282l91 121h-213l-73 -104l-75 -103h-412l70 86l89 125h-210l-77 -103l-232 -313l-92 -124h211l70 92v8l1 1v-1l97 129h408z" />
    <glyph glyph-name="I" unicode="I" horiz-adv-x="276" 
d="M255 228l138 185l86 125h-204l-75 -103l-226 -313l-89 -124h205l68 92v8l1 1l96 130v-1z" />
    <glyph glyph-name="J" unicode="J" 
d="M485 440l73 98h539l-83 -125l-223 -314l1 1q-57 -102 -304 -102h-315q-184 0 -205 67q-4 9 -4 23q0 18 8 31l122 166h208l-136 -182q2 -6 26 -7l326 -1q53 2 71 21l-1 -2l232 316l6 10h-341z" />
    <glyph glyph-name="K" unicode="K" horiz-adv-x="912" 
d="M529 -2l-273 222l-92 -122v-1q-1 -1 -1 -6l-12 -18l-54 -75h-215l92 124l231 313l83 103h219l-104 -125h1l-57 -70l553 186h181l5 -28l-660 -244l326 -259h-223z" />
    <glyph glyph-name="L" unicode="L" horiz-adv-x="902" 
d="M487 538h-208l-76 -103l-231 -316q-8 -13 -8 -31q0 -14 4 -23q22 -67 203 -67h536l86 98h-604q-23 1 -24 6l234 311z" />
    <glyph glyph-name="M" unicode="M" horiz-adv-x="1042" 
d="M761 408l-295 -410h-187l272 382l14 28h-165l-235 -309v1q0 -1 -1 -1v-1q-1 -1 -1 -8l-73 -92h-214l98 125v-1l232 313l77 103h775q116 -15 116 -102v-10q0 -7 -1 -10l-303 -418h-215l246 331l38 51q6 9 6 15q0 13 -61 13h-123zM165 99l-1 -1z" />
    <glyph glyph-name="N" unicode="N" 
d="M399 408l-236 -310q-1 -1 -1 -8l-73 -92h-212l97 125v-1l231 313l77 103h620q116 -15 116 -102v-10q0 -7 -1 -10l-301 -418h-215l245 331l38 51q7 7 7 15q0 13 -62 13h-330zM164 100q0 -1 -1 -1v-1z" />
    <glyph glyph-name="O" unicode="O" horiz-adv-x="909" 
d="M811 420l-224 -306l1 2q-19 -19 -71 -21l-321 1q-26 1 -30 5l236 312q21 13 45 20t53 7h259q38 -5 52 -20zM790 99l225 317v35q-9 57 -77 78q-21 3 -46.5 5.5t-54.5 3.5h-309q-35 0 -68.5 -2t-65.5 -5q-116 -24 -189 -96l-233 -316q-8 -13 -8 -31q0 -14 4 -23
q22 -67 205 -67h314q247 0 304 102z" />
    <glyph glyph-name="P" unicode="P" 
d="M501 440h261q36 -5 51 -20l-42 -58q-27 -35 -102 -35h-336l69 86q22 13 46 20t53 7zM261 227h503q122 0 162 52l91 138v34q-9 57 -77 78q-21 3 -46.5 5.5t-55.5 3.5h-309q-35 0 -68.5 -2t-65.5 -5q-115 -24 -190 -96l-231 -313l-89 -124h208l69 93q0 2 -0.5 3.5t0.5 3.5
l1 1v-1z" />
    <glyph glyph-name="Q" unicode="Q" horiz-adv-x="909" 
d="M500 442h261q17 -2 30 -7t20 -13l-224 -307l1 2q-20 -20 -45 -20h-54v68h-182v-68h-115q-24 3 -29 1v1l239 316q42 27 98 27zM790 100l225 319v35q-9 56 -77 77q-21 4 -46.5 6.5t-54.5 3.5h-309q-35 0 -68.5 -2t-65.5 -6q-116 -24 -189 -95l-233 -318q-8 -14 -8 -32
q0 -12 4 -23q22 -67 205 -67h136v-53h181l-3 55q252 2 304 102z" />
    <glyph glyph-name="R" unicode="R" 
d="M261 227l-98 -129v-1q-1 -1 -1 -6l-69 -93h-206l87 124l308 416h556q30 -1 55.5 -3.5t46.5 -5.5q68 -21 77 -78v-34l-91 -138q-42 -53 -139 -54h-50v-227h-198v229h-278zM762 440h-338l-21 -27l-70 -86h361q50 0 77 35l42 58q-16 16 -51 20z" />
    <glyph glyph-name="S" unicode="S" horiz-adv-x="912" 
d="M519 95q51 1 69 21l3 3l78 108h-509q-68 0 -68 40q0 19 20 45l93 124q68 82 192 95q32 3 65.5 5t67.5 2h573l-82 -98h-519q-28 0 -52.5 -7t-46.5 -20l-69 -86h507q74 0 74 -42q0 -10 -5 -20t-13 -22l-80 -112l-25 -34l1 1q-55 -100 -304 -100h-608l97 98z" />
    <glyph glyph-name="T" unicode="T" horiz-adv-x="904" 
d="M725 440l-330 -442h-199l324 442h-313l73 98h813l-78 -98h-290z" />
    <glyph glyph-name="U" unicode="U" 
d="M791 99l1 1q-61 -100 -304 -102h-315q-184 4 -206 73l4 47l234 317l72 95h205l-13 -33l-66 -84l-240 -315l1 2q-2 -2 -2 -4q0 -3 -1 -4q4 4 24 4l333 -1q52 2 71 21l-1 -2l231 315l-1 -1l61 97q11 10 59 10q13 0 28.5 -0.5t34.5 -0.5h94l-81 -122z" />
    <glyph glyph-name="V" unicode="V" horiz-adv-x="904" 
d="M473 538l-50 -350l464 346h226l-723 -536h-180l66 540h197z" />
    <glyph glyph-name="W" unicode="W" horiz-adv-x="1040" 
d="M365 126l295 410h187l-272 -382l-14 -28h164l237 310l-1 -1q2 6 2 10l73 91h214l-98 -124v1l-240 -321q-64 -94 -170 -94h-674q-116 15 -116 100v10q0 7 1 10l303 418h215l-246 -330l-38 -51q-7 -10 -7 -15q0 -14 62 -14h123zM961 434v1v-1z" />
    <glyph glyph-name="X" unicode="X" horiz-adv-x="912" 
d="M476 538h-208l123 -264l-492 -250l7 -26h181l252 129l99 51l83 -180h213l-127 265l484 246l-7 25h-185l-251 -128l-89 -45z" />
    <glyph glyph-name="Y" unicode="Y" horiz-adv-x="907" 
d="M888 534h203l-92 -122l-89 -104q-71 -83 -174 -83h-178l-112 -149l-61 -78h-188l168 229h-168q-98 0 -98 48q0 10 5.5 23t19.5 29l155 211h214l-97 -123v1l-66 -87h388z" />
    <glyph glyph-name="Z" unicode="Z" horiz-adv-x="910" 
d="M799 96l-87 -98h-747l63 95l707 347h-526l64 98h823l-92 -100l-699 -342h494z" />
    <glyph glyph-name="FL005Bh" unicode="[" horiz-adv-x="755" 
d="M350 255l12 15h-51l-13 -16v1l-123 -162l-69 -91h-199l73 93v-1l154 205l49 65h408q202 0 208 -83l-150 -207l-51 -72h-203l194 262q-6 6 -24 6h-29l-24 -32l-170 -236h-181z" />
    <glyph glyph-name="FL005Ch" unicode="\" horiz-adv-x="494" 
d="M-33 508l363 -506h191l-366 506h-188z" />
    <glyph glyph-name="FL005Dh" unicode="]" horiz-adv-x="755" 
d="M432 362l-176 -236l-23 -30h-19q-31 0 -35 3l119 156v-1l91 110h-206l-49 -65l-156 -208q-8 -13 -8 -27q0 -63 172 -63h268q191 0 240 73h-1l147 203l60 87h-190l-71 -93v1l-125 -162l2 1q-16 -15 -41 -16l-17 -1l10 16l-1 -1l183 253h-174z" />
    <glyph glyph-name="FL005Eh" unicode="^" horiz-adv-x="715" 
d="M439 87h197l50 362h-190l-554 -362h206l332 210z" />
    <glyph glyph-name="underscore" unicode="_" horiz-adv-x="478" 
d="M538 -44h-671l-18 -48h670z" />
    <glyph glyph-name="FL0060h" unicode="`" horiz-adv-x="260" 
d="M423 571h110l-111 156h-170z" />
    <glyph glyph-name="a" unicode="a" horiz-adv-x="754" 
d="M561 232l27 33q-8 5 -24 5h-454l67 94h413q201 0 207 -83l-149 -207h1q-49 -73 -240 -73h-267q-172 0 -172 63q0 14 8 27l79 105q28 36 91 36h413zM430 95q12 1 22.5 5t21.5 11l19 25h-285l-29 -38q6 -2 35 -2l216 -1h-1h1z" />
    <glyph glyph-name="b" unicode="b" horiz-adv-x="754" 
d="M364 277h200q18 0 24 -6l-119 -158l2 1q-14 -14 -42 -17h1l-216 1q-31 0 -35 4l118 158q23 17 67 17zM648 76l149 212q-6 84 -207 84h-213l97 136h-191l-149 -202l-156 -213q-8 -13 -8 -27q0 -65 172 -65h267q190 0 240 75h-1z" />
    <glyph glyph-name="c" unicode="c" horiz-adv-x="755" 
d="M365 270q-45 0 -68 -16l-118 -155q6 -3 35 -3h456l-70 -95h-458q-172 0 -172 63q0 14 8 27l156 208l-1 -1q37 66 181 66h542l-65 -94h-426z" />
    <glyph glyph-name="d" unicode="d" horiz-adv-x="758" 
d="M-33 87l150 211h-1q49 75 241 75l318 1l106 134h184l-176 -231v1l-155 -209l1 1q-38 -68 -182 -68h-278q-202 0 -208 85zM405 98q44 0 67 17l119 158q-7 4 -35 4h-218q-23 -1 -41 -16h2l-121 -158q8 -5 25 -5h202z" />
    <glyph glyph-name="e" unicode="e" horiz-adv-x="754" 
d="M206 134l-27 -35q6 -3 35 -3h456l-71 -95h-457q-172 0 -172 63q0 14 8 27l156 208l-1 -1q37 66 181 66h436q64 0 64 -40q0 -19 -19 -47l1 1l-60 -94q-39 -50 -123 -50h-407zM598 260l-2 -6l4 9q3 3 5.5 4.5t4.5 3.5q-1 -1 -12 -1h-234q-47 0 -69 -18l2 1l-20 -21h298z
" />
    <glyph glyph-name="f" unicode="f" horiz-adv-x="757" 
d="M365 270q-45 0 -68 -17l-19 -21h336l-67 -98h-340l-32 -41l-69 -91h-199l73 93v-1l145 192l-1 -1q49 79 192 79h541l-65 -94h-427z" />
    <glyph glyph-name="g" unicode="g" horiz-adv-x="758" 
d="M366 277h202q18 0 25 -7l-119 -172l-40 -1l-219 1q-31 0 -35 4l118 158q12 8 28.5 12.5t39.5 4.5zM652 78l150 210q-6 85 -208 85h-278q-144 0 -182 -68l1 1l-157 -213q-8 -13 -8 -27q0 -65 172 -65l263 1l-13 -18l2 3q-15 -15 -39.5 -22t-56.5 -8h-420l-75 -92h575
q113 0 171 76l52 69z" />
    <glyph glyph-name="h" unicode="h" horiz-adv-x="755" 
d="M365 277q-23 0 -39.5 -4.5t-28.5 -12.5l-191 -258h-199l73 95v-1l154 210l150 202h191l-97 -136h213q202 0 208 -84l-150 -212l-51 -74h-201l73 110l119 159q-5 6 -24 6h-200z" />
    <glyph glyph-name="i" unicode="i" horiz-adv-x="253" 
d="M102 2h-189l264 362h190z" />
    <glyph glyph-name="j" unicode="j" horiz-adv-x="419" 
d="M447 282l-146 -205l-50 -68l-52 -69q-58 -76 -170 -76h-341l72 92h190q32 1 56 8t39 22l202 291l-1 -1l61 96h199z" />
    <glyph glyph-name="k" unicode="k" horiz-adv-x="757" 
d="M426 2l224 -1l-297 172l486 172l-5 27h-173l-370 -120l7 8l68 88l126 158h-216l-296 -410l-70 -94h200l65 93l28 38z" />
    <glyph glyph-name="l" unicode="l" horiz-adv-x="260" 
d="M465 508h-188l-367 -506h192z" />
    <glyph glyph-name="m" unicode="m" horiz-adv-x="883" 
d="M418 255l11 15h-117l-12 -16v1l-125 -162l-68 -91h-200l73 93v-1l155 205l49 65h542q203 0 208 -83l-150 -207l-51 -72h-205l196 262q-8 6 -24 6h-98l-21 -32l-172 -236h-181z" />
    <glyph glyph-name="n" unicode="n" horiz-adv-x="755" 
d="M309 270l-11 -15l-123 -162l-69 -91h-199l73 93v-1l154 205l49 65h408q202 0 208 -83l-150 -207l-51 -72h-203l194 262q-6 6 -24 6h-256z" />
    <glyph glyph-name="o" unicode="o" horiz-adv-x="754" 
d="M364 270h200q16 0 24 -5l-119 -155l2 1q-13 -13 -42 -16h1l-216 1q-29 0 -35 3l118 155q23 16 67 16zM648 74l149 207q-6 83 -207 83h-276q-144 0 -181 -66l1 1l-156 -208q-8 -13 -8 -27q0 -63 172 -63h267q191 0 240 73h-1z" />
    <glyph glyph-name="p" unicode="p" horiz-adv-x="758" 
d="M366 277h202q18 0 24 -6l-120 -158l2 1q-14 -14 -41 -17h-1h1l-218 1q-31 0 -35 4l118 158q12 8 28.5 12.5t39.5 4.5zM652 76l150 212q-6 84 -208 84h-278q-145 0 -182 -67l1 1l-155 -210v1l-176 -231h184l107 136l317 -1q191 0 241 75h-1z" />
    <glyph glyph-name="q" unicode="q" horiz-adv-x="754" 
d="M364 277h200q18 0 25 -7l-118 -172l-40 -1l-217 1q-31 0 -35 4l118 158q23 17 67 17zM648 78l149 210q-6 85 -207 85h-276q-143 0 -181 -68l1 1l-156 -213q-8 -13 -8 -27q0 -65 172 -65l261 1l-97 -137h183l109 145z" />
    <glyph glyph-name="r" unicode="r" horiz-adv-x="668" 
d="M364 270h337l74 93h-466q-139 0 -182 -73l1 1l-148 -197v1l-72 -93h198l68 91l123 161q23 16 67 16z" />
    <glyph glyph-name="s" unicode="s" horiz-adv-x="757" 
d="M472 111q7 7 12.5 13.5t10.5 11.5h-373q-64 0 -64 40q0 10 6.5 23.5t17.5 29.5l52 70l-1 -1q37 66 182 66h541l-62 -94h-429q-47 0 -69 -18l3 2l-18 -22h353q78 0 78 -45q0 -20 -16 -45l-45 -68q-49 -73 -240 -73l-508 1l87 94l442 -1q28 3 41 16h-1z" />
    <glyph glyph-name="t" unicode="t" horiz-adv-x="640" 
d="M312 277l-17 -18l1 2l-118 -160q8 -5 29 -5h203l-95 -94h-177q-161 0 -161 81v9l156 214l149 202h190l-96 -136h361l-67 -95h-358z" />
    <glyph glyph-name="FL0075h" unicode="u" horiz-adv-x="755" 
d="M666 364l-71 -93v1l-125 -162l2 1q-17 -15 -42 -15h-216q-31 0 -35 3l119 156v-1l91 110h-206l-49 -65l-156 -208q-8 -13 -8 -27q0 -63 172 -63h268q191 0 240 73h-1l147 203l60 87h-190z" />
    <glyph glyph-name="v" unicode="v" horiz-adv-x="749" 
d="M664 364h207l-554 -362h-191l50 362h197l-41 -210z" />
    <glyph glyph-name="w" unicode="w" horiz-adv-x="908" 
d="M489 109l190 254h-182l-172 -237l-21 -31h-98q-20 0 -25 5l197 263h-204l-52 -73l-150 -206q6 -83 208 -83h420q122 0 172 65l155 205v-1l72 93h-199l-69 -91l-120 -158q-14 -18 -28 -19h-106z" />
    <glyph glyph-name="x" unicode="x" horiz-adv-x="757" 
d="M418 2h205l-139 173l358 164l-6 25h-168l-253 -113l-86 113h-166l120 -175l-357 -162l5 -25h170l237 108z" />
    <glyph glyph-name="y" unicode="y" horiz-adv-x="759" 
d="M669 373l-71 -95l-124 -180l-40 -1l-219 1q-31 0 -35 4l120 159v-1l86 113h-202l-49 -67l-157 -213q-8 -13 -8 -27q0 -65 173 -65l262 1l-12 -18l2 3q-30 -28 -96 -30h-421l-75 -92h575q114 0 172 76l52 69l51 68l147 205l55 90h-186z" />
    <glyph glyph-name="z" unicode="z" horiz-adv-x="757" 
d="M794 273l-514 -177h386l-65 -95l-689 1l77 91l530 183h-402l69 88h671z" />
    <glyph glyph-name="FL007Bh" unicode="{" horiz-adv-x="759" 
d="M365 270q-44 0 -67 -16l-123 -161l-69 -91h-199l73 93v-1l149 197l-1 -1q44 74 187 74h551l-72 -94h-429z" />
    <glyph glyph-name="FL007Ch" unicode="|" horiz-adv-x="262" 
d="M509 575h-189l-467 -655h193z" />
    <glyph glyph-name="FL007Dh" unicode="}" horiz-adv-x="755" 
d="M313 277l-16 -18l1 2l-119 -160q8 -5 29 -5h205l-97 -94h-177q-162 0 -162 81v9l157 214l150 202h191l-97 -136h480l-67 -95h-478z" />
    <glyph glyph-name="FL007Eh" unicode="~" horiz-adv-x="597" 
d="M576 299l-10 20q-26 4 -51 5.5t-51 1.5q-35 0 -69 -2t-67 -5h1q-33 -2 -66.5 -4.5t-66.5 -2.5q-12 0 -28 1t-28 1q-17 -20 -35 -43.5t-41 -57.5q36 -6 65.5 -8.5t55.5 -2.5q35 0 69 2t68 5h-1q33 3 65.5 5.5t64.5 2.5q11 0 26.5 -1t26.5 -2q18 23 35 43.5t37 41.5z" />
    <glyph glyph-name="FL00A0h" unicode="&#xa0;" horiz-adv-x="525" 
 />
    <glyph glyph-name="FL00A1h" unicode="&#xa1;" horiz-adv-x="276" 
d="M198 408h203l93 130h-203zM126 301l-214 -303h204l76 102l183 259h-205z" />
    <glyph glyph-name="backslash" unicode="&#xa2;" horiz-adv-x="755" 
d="M587 228l-28 -36l192 1l-70 -98h-194l-68 -97h-208l72 97h-60q-172 0 -172 65q0 14 8 28l156 213l-1 -1q38 68 182 68h160l53 70h208l-51 -70h171l-65 -96h-176zM446 372q-23 0 -39.5 -4.5t-28.5 -12.5l-118 -159q6 -3 35 -3l58 -1l132 180h-39z" />
    <glyph glyph-name="FL00A3h" unicode="&#xa3;" horiz-adv-x="972" 
d="M311 188l-15 -25l-49 -64v1q0 -1 -1 -1v-1v-5q0 3 29 3h609l-89 -98h-539q-182 0 -203 67q-4 9 -4 23q0 17 8 31l45 62l33 45l56 76h-183l91 74h146l43 59q72 70 188 96q23 2 47 4t60 2q5 0 15.5 -0.5t22 -1t22.5 -1t18 -0.5l-73 -94q-62 0 -105 -27l-28 -37h203l-94 -74
h-164l-89 -115v1zM246 98v1v-1z" />
    <glyph glyph-name="FL00A4h" unicode="&#xa4;" horiz-adv-x="1073" 
d="M520 158h-169l-44 -59v1q-2 -6 -2 -7q1 3 30 3h617l-90 -98h-546q-184 0 -206 67q-4 9 -4 23q0 18 8 31l28 39l-187 1l93 73h150l52 70h-186l93 74h147l44 59q73 70 190 96q32 3 66 5t69 2h580l-96 -98h-512q-57 0 -99 -27l-28 -37h205l-95 -74h-167l-53 -70h203zM307 99
l-1 -1z" />
    <glyph glyph-name="bracketright" unicode="&#xa5;" horiz-adv-x="909" 
d="M571 49l90 74h-177l13 17h164l89 73h-195l7 10h175q102 0 175 85l89 104l92 122h-203l-171 -205h-388l66 87l92 124h-210l-155 -213q-25 -31 -25 -52q0 -48 96 -48h171l-10 -14h-167l-92 -73h205l-13 -17h-189l-92 -74h227l-38 -51h189l40 51h145z" />
    <glyph glyph-name="FL00A6h" unicode="&#xa6;" horiz-adv-x="262" 
d="M509 575h-189l-467 -655h193z" />
    <glyph glyph-name="FL00A7h" unicode="&#xa7;" horiz-adv-x="912" 
d="M429 233l52 70h87l-52 -70h-87zM698 414h-202q-58 0 -92 -28l-45 -59h-25l67 84q50 29 101 29h519l82 98h-573q-34 0 -67.5 -2t-65.5 -5q-124 -13 -192 -95l-93 -124q-20 -26 -20 -45q0 -40 68 -40h125l-45 -63q2 -18 19 -28.5t50 -11.5h222q36 3 61 28l55 75h22
l-78 -108l-3 -3q-18 -20 -69 -21l-541 1l-97 -98h608q249 0 304 100l-1 -1l25 34l80 112q8 12 13 22t5 20q0 42 -74 42h-119l36 47q-7 40 -60 40z" />
    <glyph glyph-name="FL00A8h" unicode="&#xa8;" horiz-adv-x="275" 
d="M717 614l-73 -87h-189l88 106h164v-24zM449 614l-74 -87h-188l88 106h164v-24z" />
    <glyph glyph-name="FL00A9h" unicode="&#xa9;" horiz-adv-x="909" 
d="M790 99l1 1q-57 -102 -304 -102h-314q-183 0 -205 67q-4 9 -4 23q0 18 8 31l233 316q72 70 189 96q32 3 65.5 5t68.5 2h309q29 -1 54.5 -3.5t46.5 -5.5q68 -21 77 -78v-35zM845 419q-20 17 -62 21h-279q-33 0 -69.5 -8.5t-78.5 -24.5l-234 -295q16 -13 52 -16l347 -1
q59 1 97 24zM721 336h-139q-45 0 -68 -16l3 2l-111 -124q3 -1 30 -1h218l-62 -84l-226 -1q-167 0 -167 57q0 14 7 24l153 171l-1 -1q37 57 182 57h258z" />
    <glyph glyph-name="FL00AAh" unicode="&#xaa;" horiz-adv-x="609" 
d="M486 418l12 15q-1 1 -7 1h-299l47 70h267q134 0 140 -59l-100 -135h1q-32 -51 -156 -51h-171q-113 0 -113 46q0 9 5 21l49 68q22 24 63 24h262zM338 348h-73l-14 -18h15h139q12 1 22 8l7 10h-96z" />
    <glyph glyph-name="FL00ABh" unicode="&#xab;" horiz-adv-x="585" 
d="M284 270l-15 -45l200 -166l25 72l-134 109l208 107l32 88zM36 269l-15 -46l200 -166l25 72l-134 109l208 108l32 88z" />
    <glyph glyph-name="FL00ACh" unicode="&#xac;" horiz-adv-x="574" 
d="M480 53h-118l70 117h-432l84 92h541l-74 -87l1 2z" />
    <glyph glyph-name="FL00ADh" unicode="&#xad;" horiz-adv-x="264" 
d="M327 267h-190l-88 -106h191z" />
    <glyph glyph-name="FL00AEh" unicode="&#xae;" horiz-adv-x="909" 
d="M790 99l1 1q-57 -102 -304 -102h-314q-183 0 -205 67q-4 9 -4 23q0 18 8 31l233 316q72 70 189 96q32 3 65.5 5t68.5 2h309q29 -1 54.5 -3.5t46.5 -5.5q68 -21 77 -78v-35zM845 419q-20 17 -62 21h-279q-33 0 -69.5 -8.5t-78.5 -24.5l-234 -295q16 -13 52 -16l347 -1
q59 1 97 24zM731 330h-139q-46 0 -68 -16l3 2l-120 -133v1l-64 -76l-134 -1v56q0 12 160 196l-1 -1q38 56 181 56h258z" />
    <glyph glyph-name="FL00AFh" unicode="&#xaf;" horiz-adv-x="478" 
d="M641 451l-19 -48h-670l18 48h671z" />
    <glyph glyph-name="FL00B0h" unicode="&#xb0;" horiz-adv-x="508" 
d="M525 637l-83 -106h-179l82 106h180z" />
    <glyph glyph-name="FL00B1h" unicode="&#xb1;" horiz-adv-x="897" 
d="M937 335h-388l-79 -144h-120l80 144h-388l37 69h390l81 146h119l-82 -146h388zM614 45h-560l92 73h559z" />
    <glyph glyph-name="FL00B2h" unicode="&#xb2;" horiz-adv-x="596" 
d="M398 324h-6l-138 -1l30 37h268l67 81v20q-6 27 -40 37q-15 4 -48 4h-135l-31 -56h132q7 0 11 -2l-23 -27h-188q-69 0 -103 -28l-46 -59q-6 -9 -6 -19q0 -6 2 -12v1q10 -34 97 -34h137q113 0 155 69h-111l-7 -8q-5 -3 -17 -3z" />
    <glyph glyph-name="FL00B3h" unicode="&#xb3;" horiz-adv-x="635" 
d="M386 327h-122q-11 1 -18 4.5t-12 8.5h-106v-29q6 -24 44 -36q5 0 10 -0.5t10 -1.5t15 -1h8t8 -1h159q17 0 34 1t34 3q60 9 100 38l121 127q2 5 3.5 9.5t1.5 9.5q0 2 -0.5 5t-2.5 7q-17 29 -111 29h-162q-129 0 -175 -63h126q11 10 36 11h165l-38 -37h-227l-54 -57h226
l-20 -17l4 2q-23 -12 -57 -12z" />
    <glyph glyph-name="FL00B4h" unicode="&#xb4;" horiz-adv-x="260" 
d="M395 571l171 156h-169l-112 -156h110z" />
    <glyph glyph-name="sterling" unicode="&#xb5;" horiz-adv-x="759" 
d="M-75 21l-112 -145h191l105 128l303 -3q191 0 241 75h-1l148 207l60 89h-191l-71 -95v1l-126 -165l2 1q-14 -14 -41 -17h-1h1l-218 1q-29 0 -35 3l120 159v-1l91 113h-207l-49 -67l-210 -285v1z" />
    <glyph glyph-name="FL00B6h" unicode="&#xb6;" horiz-adv-x="903" 
d="M259 114l-1 -1l69 114h-78q-84 27 -84 104q0 3 0.5 8t0.5 8l36 87q72 70 189 96q32 4 65 6t68 2h306q30 -1 55.5 -3.5t46.5 -5.5q67 -22 76 -78q0 -21 -17 -44l-264 -407h-224l78 114l6 6l-3 -2l169 263h-109l-183 -283l-75 -98h-207z" />
    <glyph glyph-name="FL00B7h" unicode="&#xb7;" horiz-adv-x="264" 
d="M327 267h-190l-88 -106h191z" />
    <glyph glyph-name="FL00B8h" unicode="&#xb8;" horiz-adv-x="269" 
d="M-170 -145h194l73 97l59 85h-114l-46 -64h-79z" />
    <glyph glyph-name="FL00B9h" unicode="&#xb9;" horiz-adv-x="350" 
d="M286 365l66 74v-1l57 62h-116l-92 -23l-46 -47h65l-87 -96l-60 -63h130z" />
    <glyph glyph-name="FL00BAh" unicode="&#xba;" horiz-adv-x="612" 
d="M497 441l-1 -2q0 1 1 2zM420 344h-138l44 76h-1q4 6 25 6h127q1 0 9 -2l-42 -75q-3 -5 -24 -5zM332 270h122q90 0 119 50l65 111q7 13 7 25q0 20 -20 31l1 -1q-23 14 -61 14h-250q-89 0 -117 -48l-66 -113l1 1q-5 -6 -6.5 -12t-1.5 -12v-7q6 -39 79 -39h128z" />
    <glyph glyph-name="FL00BBh" unicode="&#xbb;" horiz-adv-x="580" 
d="M550 217l16 46l-201 166l-25 -72l135 -110l-209 -107l-32 -88zM293 215l15 46l-201 166l-25 -72l135 -109l-208 -108l-33 -88z" />
    <glyph glyph-name="FL00BCh" unicode="&#xbc;" horiz-adv-x="939" 
d="M215 279l71 78v-1l61 66h-126l-98 -24l-49 -50h70l-94 -102l-65 -67h140zM606 160l20 21l56 64h-124l-41 -42l-92 -103h311l-27 -32l-2 -2l-56 -64h130l39 45l12 15l100 120h-1l61 66h-132l-37 -48l1 1l-35 -41h-183zM38 1l756 387l-7 24h-136l-758 -387l7 -24h138z" />
    <glyph glyph-name="FL00BDh" unicode="&#xbd;" horiz-adv-x="900" 
d="M214 279l71 78v-1l61 66h-125l-98 -24l-49 -50h69l-94 -102l-64 -67h140zM656 63h-7l-142 -1l31 39h277l68 86v21q-5 29 -40 38q-10 3 -22 4t-28 1h-139l-32 -59h136q2 -1 6 -1t5 -1l-23 -29h-195q-68 0 -106 -29l-48 -62q-7 -11 -7 -21q0 -6 3 -12v1q10 -36 100 -36h142
q116 0 160 72h-115l-7 -8q-5 -3 -17 -3zM38 1l753 387l-6 24h-136l-756 -387l7 -24h138z" />
    <glyph glyph-name="FL00BEh" unicode="&#xbe;" horiz-adv-x="1118" 
d="M115 255h-110v-32q8 -27 46 -38q5 0 10 -0.5t10 -1.5t15 -1h8t9 -1h164q17 0 35 1t35 3q60 10 103 41l124 134q5 13 5 20q0 2 -0.5 5.5t-2.5 7.5q-16 31 -114 31h-167q-132 0 -180 -67h129q14 11 38 12h170l-39 -39h-234l-55 -60h232l-20 -19l4 2q-24 -12 -59 -12h-125
q-20 1 -31 14zM740 245l279 143l-7 24h-136l-759 -387l7 -24h138l467 238l-36 -36l-92 -103h311l-27 -32l-2 -2l-56 -64h130l39 45l13 15l100 120h-1l60 66h-132l-37 -48l1 1l-35 -41h-183l21 21l55 64h-118z" />
    <glyph glyph-name="FL00BFh" unicode="&#xbf;" horiz-adv-x="901" 
d="M688 410h206l96 128h-209zM278 227v1l-76 -108v-35q9 -56 76 -77q21 -4 46 -6.5t55 -3.5h306q35 0 67.5 2t64.5 6q60 13 110.5 42t98.5 80h-209q-24 -15 -49.5 -23.5t-54.5 -8.5h-257q-36 3 -53 19l34 46q34 49 149 49h172l99 149h-203l-37 -49h-141q-133 0 -198 -83z
" />
    <glyph glyph-name="FL00C0h" unicode="&#xc0;" 
d="M590 120l78 111h-407l-98 -131v-1q-1 -1 -1 -4v-3l-74 -94h-217l104 127l-1 -1l231 320q74 71 190 98q32 3 65.5 5t68.5 2h309q30 -1 55.5 -3.5t46.5 -5.5q68 -23 77 -79v-36l-201 -291l-25 -35l-73 -101h-219l87 119zM813 429q-17 16 -53 20h-258q-55 0 -99 -28l-69 -88
h411zM702 663l-188 181h186l123 -181h-121z" />
    <glyph glyph-name="FL00C1h" unicode="&#xc1;" 
d="M590 120l78 111h-407l-98 -131v-1q-1 -1 -1 -4v-3l-74 -94h-217l104 127l-1 -1l231 320q74 71 190 98q32 3 65.5 5t68.5 2h309q30 -1 55.5 -3.5t46.5 -5.5q68 -23 77 -79v-36l-201 -291l-25 -35l-73 -101h-219l87 119zM813 429q-17 16 -53 20h-258q-55 0 -99 -28l-69 -88
h411zM725 663h-120l122 181h186z" />
    <glyph glyph-name="FL00C2h" unicode="&#xc2;" 
d="M590 120l78 111h-407l-98 -131v-1q-1 -1 -1 -4v-3l-75 -94l-203 2l90 124l231 320q71 71 190 98q32 4 65.5 5.5t68.5 1.5h309q60 -2 102 -9q68 -23 77 -79v-36l-201 -291l-26 -35l-73 -101h-218l87 119zM813 429q-14 15 -53 20h-258q-57 0 -100 -28l-69 -87h412zM615 663
l-133 -2l276 191h98l-24 -190h-107l13 84z" />
    <glyph glyph-name="FL00C3h" unicode="&#xc3;" 
d="M590 120l78 111h-407l-98 -132q-1 -1 -1 -7l-75 -92h-203l321 443q73 71 190 97q32 4 65.5 6t68.5 2h309q30 -1 55.5 -3.5t46.5 -6.5q68 -21 77 -79v1l7 -38l-208 -288l-98 -136h-219l87 118zM965 792l-92 -133h-458l91 133h459zM762 448h-261q-58 0 -98 -28l-69 -87h411
l68 95q-15 15 -51 20z" />
    <glyph glyph-name="FL00C4h" unicode="&#xc4;" 
d="M590 120l78 111h-407l-98 -131v-1q-1 -1 -1 -4v-4l-75 -93l-203 2l90 124l231 319q73 71 190 97q32 4 65.5 6t68.5 2h309q30 -1 55.5 -3.5t46.5 -6.5q68 -21 77 -79v-35l-201 -290l-26 -35l-73 -101h-218l87 118zM762 448h-260q-54 0 -100 -28l-69 -87h412l68 95
q-15 15 -51 20zM969 768l-75 -109h-195l90 133h170v-30zM697 768l-75 -109h-195l90 133h169v-30z" />
    <glyph glyph-name="FL00C5h" unicode="&#xc5;" 
d="M590 120l78 111h-407l-98 -131v-1q-1 -1 -1 -4v-4l-75 -93l-203 2l90 124l231 319q73 71 190 97q32 4 65.5 6t68.5 2h309q30 -1 55.5 -3.5t46.5 -6.5q68 -21 77 -79v-35l-201 -290l-26 -35l-73 -101h-218l87 118zM813 428q-17 16 -53 20h-258q-54 0 -100 -28l-69 -87h412
zM867 792l-91 -133h-198l91 133h198z" />
    <glyph glyph-name="FL00C6h" unicode="&#xc6;" horiz-adv-x="1560" 
d="M1143 440q-28 0 -53 -7t-47 -20l-70 -86h456l-79 -100h-451l-98 -129v-1l-1 -2q0 1 24 1h629l-95 -98h-854l89 116l4 4l78 109h-412l-98 -129v-1q-1 -1 -1 -7l-76 -92h-219l105 125l-1 -1l234 313q74 71 192 96q32 3 66.5 5t69.5 2h1216l-91 -98h-517zM771 440h-264
q-28 0 -53 -7t-47 -20l-70 -86h416l69 93q-16 16 -51 20z" />
    <glyph glyph-name="FL00C7h" unicode="&#xc7;" 
d="M502 446q-55 0 -99 -28l-239 -318v1q-2 -2 -2 -5q2 4 31 2h614l-90 -100l-223 2l-119 -163h-208l94 132h85l21 31l-194 -2q-184 0 -205 68q-4 9 -4 23q0 18 8 32l233 320q70 70 190 97q32 3 65.5 5t68.5 2h578l-95 -99h-510z" />
    <glyph glyph-name="FL00C8h" unicode="&#xc8;" 
d="M502 449q-54 0 -100 -28l-69 -88h452l-79 -102h-445l-98 -131v-1l-1 -2q0 1 24 1h622l-93 -100h-542q-184 0 -205 68q-4 9 -4 24q0 18 8 31l233 323q74 71 190 98q32 3 65.5 5t68.5 2h573l-89 -100h-511zM702 663l-188 181h186l122 -181h-120z" />
    <glyph glyph-name="FL00C9h" unicode="&#xc9;" 
d="M501 449q-56 0 -99 -28l-69 -88h452l-79 -102h-445l-98 -132l-1 -2q0 1 30 1h616l-93 -100h-542q-182 0 -205 68q-4 9 -4 24q0 18 8 31l233 323q74 71 190 98q32 3 65.5 5t68.5 2h573l-89 -100h-512zM725 663h-120l122 181h186z" />
    <glyph glyph-name="FL00CAh" unicode="&#xca;" 
d="M502 449q-57 0 -100 -28l-69 -87h452l-79 -103h-445l-98 -131v-1l-1 -2q0 1 24 1h622l-93 -100h-542q-184 0 -205 69q-2 5 -3 11.5t-1 11.5q0 18 8 31l233 323q71 71 190 98q32 4 65.5 5.5t68.5 1.5h573l-89 -100h-511zM615 663l-133 -2l276 191h99l-25 -190h-107l13 84z
" />
    <glyph glyph-name="FL00CBh" unicode="&#xcb;" 
d="M502 448q-54 0 -100 -28l-69 -87h452l-79 -102h-445l-98 -131v-1l-1 -2q0 1 24 1h622l-93 -100h-542q-184 0 -205 68q-4 11 -4 23q0 19 8 32l233 322q73 71 190 97q32 4 65.5 6t68.5 2h573l-89 -100h-511zM973 768l-73 -109h-197l90 133h169v-30zM697 768l-75 -109h-195
l90 133h169v-30z" />
    <glyph glyph-name="FL00CCh" unicode="&#xcc;" horiz-adv-x="278" 
d="M456 663h118l-120 181h-182zM257 233l139 189l87 127h-205l-77 -105l-227 -320l-89 -126h206l68 94v8l1 1l97 133v-1z" />
    <glyph glyph-name="FL00CDh" unicode="&#xcd;" horiz-adv-x="278" 
d="M426 663l185 181h-183l-120 -181h118zM257 234l228 315h-207l-76 -105l-228 -320l-90 -126h207l69 94v8l1 1z" />
    <glyph glyph-name="FL00CEh" unicode="&#xce;" horiz-adv-x="279" 
d="M480 662h106l23 190h-96l-272 -191l131 2l121 83zM257 233l140 189l87 127h-206l-76 -105l-228 -320l-90 -126h207l69 94v8l1 1l96 133v-1z" />
    <glyph glyph-name="FL00CFh" unicode="&#xcf;" horiz-adv-x="280" 
d="M259 234l-97 -133v-2q-1 -1 -1 -4v-4l-69 -93h-209l91 126l229 319l77 105h207l-87 -127l-141 -188v1zM733 768l-74 -109h-194l90 133h167v-30zM459 768l-74 -109h-193l89 133h168v-30z" />
    <glyph glyph-name="abreve" unicode="&#xd0;" horiz-adv-x="903" 
d="M585 118l77 109h-413q-84 27 -84 104q0 3 0.5 8t0.5 8l36 87q72 70 189 96q32 4 65 6t68 2h306q30 -1 55.5 -3.5t46.5 -5.5q67 -22 76 -78v-35l-200 -285l-25 -34l1 1l-59 -98h-227l83 114zM805 420q-14 15 -52 20h-256q-54 0 -98 -28l-56 -60l1 2q-8 -14 -8 -19
q0 -8 34 -8h368z" />
    <glyph glyph-name="FL00D1h" unicode="&#xd1;" 
d="M399 415l-235 -314v1q0 -1 -1 -1v-1q-1 -1 -1 -9l-73 -93h-212l97 127v-1l231 319l77 105h620q116 -17 116 -104v-11q0 -6 -1 -9l-301 -426h-215l245 337l38 51q7 10 7 16q0 13 -62 13h-330zM965 792l-92 -133h-458l91 133h459zM164 101l-1 -1z" />
    <glyph glyph-name="FL00D2h" unicode="&#xd2;" horiz-adv-x="909" 
d="M701 663h120l-122 181h-186zM500 449h261q36 -5 50 -20l-224 -312l1 2q-19 -21 -71 -22l-321 1q-26 1 -30 5l236 318q41 28 98 28zM790 101l225 324v36q-9 56 -77 79q-21 3 -46.5 5.5t-54.5 3.5h-309q-35 0 -68.5 -2t-65.5 -5q-116 -25 -189 -98l-233 -323q-8 -13 -8 -31
q0 -15 4 -24q23 -68 205 -68h314q247 0 304 104z" />
    <glyph glyph-name="FL00D3h" unicode="&#xd3;" horiz-adv-x="909" 
d="M724 663l187 181h-185l-122 -181h120zM500 449h261q36 -5 50 -20l-224 -312l1 2q-19 -21 -71 -22l-321 1q-26 1 -30 5l236 318q41 28 98 28zM790 101l225 324v36q-9 56 -77 79q-21 3 -46.5 5.5t-54.5 3.5h-309q-35 0 -68.5 -2t-65.5 -5q-116 -25 -189 -98l-233 -323
q-8 -13 -8 -31q0 -15 4 -24q23 -68 205 -68h314q247 0 304 104z" />
    <glyph glyph-name="FL00D4h" unicode="&#xd4;" horiz-adv-x="909" 
d="M724 662h107l24 190h-98l-276 -191l133 2l123 83zM500 449h261q17 -2 30 -7t20 -13l-224 -312l1 2q-19 -21 -71 -22l-321 1q-26 1 -30 5l236 318q40 28 98 28zM790 101l225 324v36q-9 56 -77 79q-42 7 -101 9h-309q-35 0 -68.5 -1.5t-65.5 -5.5q-58 -13 -105 -36.5
t-84 -61.5l-233 -323q-8 -13 -8 -31q0 -5 1 -11.5t3 -11.5q22 -69 205 -69h314q247 0 304 104z" />
    <glyph glyph-name="FL00D5h" unicode="&#xd5;" horiz-adv-x="909" 
d="M963 792h-458l-91 -133h457zM811 428l-224 -312l1 2q-19 -19 -71 -21h-319q-29 3 -33 6l1 1l236 316q40 28 98 28h259q38 -5 52 -20zM790 101l225 323v35q-9 58 -77 79q-21 4 -46.5 6.5t-54.5 3.5h-309q-35 0 -68.5 -2t-65.5 -6q-116 -24 -189 -97l-233 -322
q-8 -13 -8 -32q0 -14 4 -23q23 -68 205 -68h314q247 0 304 104z" />
    <glyph glyph-name="FL00D6h" unicode="&#xd6;" horiz-adv-x="909" 
d="M790 101l1 1q-57 -104 -304 -104h-314q-182 0 -205 68q-4 11 -4 23q0 19 8 32l233 322q71 71 189 97q32 4 65.5 6t68.5 2h309q29 -1 54.5 -3.5t46.5 -6.5q68 -21 77 -79v-35zM811 428q-14 15 -52 20h-258q-55 0 -99 -28l-236 -317q4 -4 30 -5l321 -1q52 2 71 21l-1 -2z
M968 768l-73 -109h-197l90 133h169v-30zM696 768l-75 -109h-195l90 133h169v-30z" />
    <glyph glyph-name="FL00D7h" unicode="&#xd7;" 
d="M468 380l19 28h-88l-236 -310q-1 -1 -1 -8l-73 -92h-212l97 125v-1l231 313l77 103h620q116 -15 116 -102v-10q0 -7 -1 -10l-301 -418h-215l245 331l38 51q7 7 7 15q0 13 -62 13h-52l-294 -410h-187zM164 100q0 -1 -1 -1v-1z" />
    <glyph glyph-name="FL00D8h" unicode="&#xd8;" horiz-adv-x="909" 
d="M500 440h168l-466 -291l200 264q21 13 45 20t53 7zM789 391l-202 -277l1 2q-19 -19 -71 -21l-204 1zM34 13l115 -15h338q247 0 304 102l-1 -1l225 317v36q-9 49 -59 72l-124 14h-304q-35 0 -68.5 -2t-65.5 -5q-116 -24 -189 -96l-233 -316q-8 -13 -8 -31q0 -15 4 -24
q12 -33 66 -51z" />
    <glyph glyph-name="FL00D9h" unicode="&#xd9;" 
d="M791 101l1 1q-61 -102 -304 -104h-315q-184 5 -206 74l4 48l234 324l72 98h212l-86 -120l-240 -322l1 2q-2 -2 -2 -4q0 -3 -1 -5q3 5 24 5l333 -1q52 1 71 22l-1 -2l231 321l-1 -1l61 99q11 10 59 10q13 0 28.5 -0.5t34.5 -0.5h94l-81 -124zM702 663l-188 181h186
l122 -181h-120z" />
    <glyph glyph-name="FL00DAh" unicode="&#xda;" 
d="M791 101l1 1q-61 -102 -304 -104h-315q-184 5 -206 74l4 48l234 324l72 98h205l-13 -34l-66 -86l-240 -322l1 2q-2 -2 -2 -4q0 -3 -1 -5q3 5 24 5l333 -1q52 1 71 22l-1 -2l231 321l-1 -1l61 99q11 10 59 10q13 0 28.5 -0.5t34.5 -0.5h94l-81 -124zM725 663h-120l122 181
h186z" />
    <glyph glyph-name="FL00DBh" unicode="&#xdb;" 
d="M791 101l1 1q-61 -102 -304 -104h-315q-184 5 -206 74l4 48l234 324l72 98h205l-13 -34l-66 -86l-240 -322l1 2q-2 -2 -2 -4q0 -3 -1 -5q3 5 24 5l333 -1q52 1 71 22l-1 -2l231 322l-1 -1l61 98q11 11 59 11q13 0 28.5 -0.5t34.5 -0.5h94l-81 -125zM615 663l-133 -2
l276 191h98l-24 -190h-107l13 84z" />
    <glyph glyph-name="FL00DCh" unicode="&#xdc;" 
d="M791 101l1 1q-61 -102 -304 -104h-315q-184 5 -206 74l4 48l234 323l72 97h205l-13 -33l-66 -86l-240 -321l1 2q-2 -2 -2 -4q0 -3 -1 -5q3 5 24 5l333 -1q52 2 71 21l-1 -2l231 321l-1 -1l61 98q11 11 59 11q13 0 28.5 -0.5t34.5 -0.5h94l-81 -124zM697 768l-75 -109
h-195l90 133h169v-30zM977 768l-75 -109h-195l90 133h169v-30z" />
    <glyph glyph-name="FL00DDh" unicode="&#xdd;" horiz-adv-x="907" 
d="M888 545h203l-92 -125l-89 -106q-72 -85 -174 -85h-178l-112 -152l-61 -79h-188l168 233h-168q-98 0 -98 49q0 11 5.5 24t19.5 29l155 216h214l-97 -125v1l-66 -90h388zM722 663h-120l122 181h185z" />
    <glyph glyph-name="grave" unicode="&#xde;" horiz-adv-x="908" 
d="M425 323h246q36 -5 50 -20l-41 -58q-27 -35 -102 -35h-338l80 114zM390 423l81 117h-207l-290 -418l-85 -122h206l67 91q0 5 1 6v2l7 11h503q122 0 162 52l90 138v34q-9 55 -77 78q-21 3 -46.5 5.5t-54.5 3.5z" />
    <glyph glyph-name="FL00DFh" unicode="&#xdf;" horiz-adv-x="912" 
d="M838 162l-46 -64l1 1q-54 -99 -295 -99h-203l77 97l147 -1q51 1 69 21l3 3l58 83q10 13 10 20q0 6 -30 6h-182l67 101h168q64 0 99 48l33 46q-14 16 -51 20h-338l-21 -26v1l-388 -530h-197l386 550q83 104 198 104h436q60 -2 103 -9q68 -23 77 -78v-36l-60 -80
q-24 -37 -122 -78q17 -23 17 -48q0 -27 -16 -52z" />
    <glyph glyph-name="FL00E0h" unicode="&#xe0;" horiz-adv-x="754" 
d="M561 240l27 35q-6 6 -24 6h-454l67 97h413q201 0 207 -86l-149 -215h1q-49 -76 -240 -76h-267q-172 0 -172 66q0 14 8 27l79 109q28 37 91 37h413zM533 489l-185 179h183l122 -179h-120zM430 98q20 3 44 17l19 26h-285l-29 -39q7 -3 35 -3z" />
    <glyph glyph-name="FL00E1h" unicode="&#xe1;" horiz-adv-x="754" 
d="M561 240l27 35q-6 6 -24 6h-454l67 97h413q201 0 207 -86l-149 -215h1q-49 -76 -240 -76h-267q-172 0 -172 66q0 14 8 27l79 109q28 37 91 37h413zM537 489h-119l121 179h184zM430 98q20 3 44 17l19 26h-285l-29 -39q7 -3 35 -3z" />
    <glyph glyph-name="FL00E2h" unicode="&#xe2;" horiz-adv-x="754" 
d="M561 240l27 35q-6 6 -24 6h-454l67 97h413q201 0 207 -86l-149 -215h1q-49 -76 -240 -76h-267q-172 0 -172 66q0 14 8 27l79 109q28 37 91 37h413zM459 481l-132 -2l274 189h97l-24 -188h-106l13 83zM430 98q20 3 44 17l19 26h-285l-29 -39q7 -3 35 -3l216 -1h-1h1z" />
    <glyph glyph-name="FL00E3h" unicode="&#xe3;" horiz-adv-x="754" 
d="M561 240l27 34q-5 5 -24 5h-454l67 97h413q201 0 207 -85l-149 -214h1q-49 -76 -240 -76h-267q-172 0 -172 66q0 14 8 27l79 108q29 38 91 38h413zM813 616l-91 -131h-453l89 131h455zM430 98q20 3 44 17l19 26h-285l-29 -39q7 -3 35 -3z" />
    <glyph glyph-name="FL00E4h" unicode="&#xe4;" horiz-adv-x="754" 
d="M561 240l27 34q-5 5 -24 5h-454l67 97h413q201 0 207 -85l-149 -214h1q-49 -76 -240 -76h-267q-172 0 -172 66q0 14 8 27l79 108q29 38 91 38h413zM555 616l-91 -131h-195l89 131h197zM813 616l-91 -131h-195l89 131h197zM429 98q24 5 45 17l19 26h-285l-29 -39
q7 -3 35 -3l216 -1h-1z" />
    <glyph glyph-name="FL00E5h" unicode="&#xe5;" horiz-adv-x="754" 
d="M561 240l27 34q-5 5 -24 5h-454l67 97h413q201 0 207 -85l-149 -214h1q-49 -76 -240 -76h-267q-172 0 -172 66q0 14 8 27l79 108q29 38 91 38h413zM678 616l-91 -131h-195l89 131h197zM430 98q20 3 44 17l19 26h-285l-29 -39q7 -3 35 -3z" />
    <glyph glyph-name="FL00E6h" unicode="&#xe6;" horiz-adv-x="1271" 
d="M774 231l20 21l-2 -1q24 18 71 18h237q10 0 11 1l-8 -7l-26 -32h-303zM438 95h-221q-27 0 -34 4l28 37h290l-20 -25q-22 -14 -43 -16zM702 133h413q84 0 125 50l60 94l-1 -1q19 25 19 47q0 40 -65 40h-435q-57 0 -97 -9q-46 10 -122 10h-419l-69 -94h461q17 0 25 -5
l-28 -33h-419q-64 0 -92 -36l-80 -105q-8 -13 -8 -27q0 -63 174 -63h957l71 94h-462q-29 0 -35 3z" />
    <glyph glyph-name="FL00E7h" unicode="&#xe7;" horiz-adv-x="755" 
d="M365 277q-42 0 -68 -17l-118 -158q4 -4 35 -4h456l-70 -97l-162 1l-38 -56l-78 -106h-206l92 130h84l22 32l-172 -1q-172 0 -172 65q0 14 8 27l156 214l-1 -1q38 68 181 68h542l-65 -97h-426z" />
    <glyph glyph-name="FL00E8h" unicode="&#xe8;" horiz-adv-x="754" 
d="M206 139l-27 -36q4 -4 35 -4h456l-71 -98h-457q-172 0 -172 66q0 14 8 27l156 216l-1 -1q37 69 181 69h436q64 0 64 -42q0 -20 -19 -49l1 1l-60 -97q-39 -52 -123 -52h-407zM534 489l-186 179h184l121 -179h-119zM598 270l-2 -7l4 10q7 7 10 8h-12h-234q-46 0 -69 -20
l2 1l-20 -22h298z" />
    <glyph glyph-name="FL00E9h" unicode="&#xe9;" horiz-adv-x="754" 
d="M206 139l-27 -36q4 -4 35 -4h456l-71 -98h-457q-172 0 -172 66q0 14 8 27l156 216l-1 -1q37 69 181 69h436q64 0 64 -42q0 -20 -19 -49l1 1l-60 -97q-39 -52 -123 -52h-407zM538 489h-120l122 179h184zM598 270l-2 -7l4 10q7 7 10 8h-12h-234q-46 0 -69 -20l2 1l-20 -22
h298z" />
    <glyph glyph-name="FL00EAh" unicode="&#xea;" horiz-adv-x="754" 
d="M206 139l-27 -36q4 -4 35 -4h456l-71 -98h-457q-172 0 -172 66q0 14 8 27l156 216l-1 -1q37 69 181 69h436q64 0 64 -42q0 -20 -19 -49l1 1l-60 -97q-39 -52 -123 -52h-407zM460 481l-132 -2l273 189h98l-25 -188h-106l13 83zM598 270l-2 -7l4 10q7 7 10 8h-12h-234
q-46 0 -69 -20l2 1l-20 -22h298z" />
    <glyph glyph-name="FL00EBh" unicode="&#xeb;" horiz-adv-x="754" 
d="M206 139l-27 -36q4 -4 35 -4h456l-71 -98h-457q-172 0 -172 66q0 14 8 27l156 215l-1 -1q19 35 64 51.5t117 16.5h436q64 0 64 -41q0 -20 -19 -49l1 1l-60 -97q-39 -51 -123 -51h-407zM555 616l-91 -131h-195l89 131h197zM813 616l-90 -131h-196l90 131h196zM598 269
l-2 -7l4 10q7 7 10 8q-1 -1 -12 -1h-234q-47 0 -69 -19l2 1l-20 -21h298z" />
    <glyph glyph-name="FL00ECh" unicode="&#xec;" horiz-adv-x="256" 
d="M349 489h117l-119 179h-180zM104 2l268 376h-193l-267 -376h192z" />
    <glyph glyph-name="FL00EDh" unicode="&#xed;" horiz-adv-x="257" 
d="M339 489l183 179h-181l-119 -179h117zM104 2l270 376h-194l-268 -376h192z" />
    <glyph glyph-name="FL00EEh" unicode="&#xee;" horiz-adv-x="257" 
d="M369 480h104l24 188h-96l-268 -189l129 2l120 82zM104 2l270 376h-194l-268 -376h192z" />
    <glyph glyph-name="FL00EFh" unicode="&#xef;" horiz-adv-x="260" 
d="M383 616h-195l-89 -131h194zM651 616h-195l-89 -131h194zM105 2l273 374h-196l-271 -374h194z" />
    <glyph glyph-name="FL00F0h" unicode="&#xf0;" 
d="M482 122l-20 -26h118l311 438h206q-79 -103 -79 -118l-227 -318l-39 -47q-44 -53 -135 -53h-607q-78 0 -78 43q0 17 20 46l-1 -2l21 34l308 419h215l-97 -123v1l-235 -317q-1 -1 -1 -3h111l27 42l295 400h194z" />
    <glyph glyph-name="FL00F1h" unicode="&#xf1;" horiz-adv-x="755" 
d="M309 279l-11 -16l-123 -167l-69 -94h-199l73 96v-1l154 212l49 67h408q202 0 208 -85l-150 -214l-51 -75h-203l195 271q-6 6 -25 6h-256zM814 616l-90 -131h-455l90 131h455z" />
    <glyph glyph-name="FL00F2h" unicode="&#xf2;" horiz-adv-x="754" 
d="M797 292l-149 -215h1q-49 -76 -240 -76h-267q-172 0 -172 66q0 14 8 27l156 216l-1 -1q37 69 181 69h276q201 0 207 -86zM364 281q-23 0 -39.5 -5t-27.5 -13l-118 -160q4 -4 35 -4l216 -1h-1h1q24 3 41 17h-2l119 160q-6 6 -24 6h-200zM533 489l-185 179h183l122 -179
h-120z" />
    <glyph glyph-name="FL00F3h" unicode="&#xf3;" horiz-adv-x="754" 
d="M537 489l186 179h-184l-121 -179h119zM364 281h200q18 0 24 -6l-119 -160h2q-17 -14 -41 -17h-1h1l-216 1q-31 0 -35 4l118 160q11 8 27.5 13t39.5 5zM648 77l149 215q-6 86 -207 86h-276q-144 0 -181 -69l1 1l-156 -216q-8 -13 -8 -27q0 -66 172 -66h267q191 0 240 76
h-1z" />
    <glyph glyph-name="FL00F4h" unicode="&#xf4;" horiz-adv-x="754" 
d="M797 292l-149 -215h1q-49 -76 -240 -76h-267q-172 0 -172 66q0 14 8 27l156 216l-1 -1q37 69 181 69h276q201 0 207 -86zM364 281q-23 0 -39.5 -5t-27.5 -13l-118 -160q4 -4 35 -4l216 -1h-1q25 3 42 17h-2l119 160q-6 6 -24 6h-200zM459 481l-132 -2l274 189h97
l-24 -188h-106l13 83z" />
    <glyph glyph-name="FL00F5h" unicode="&#xf5;" horiz-adv-x="754" 
d="M797 291l-149 -214h1q-49 -76 -240 -76h-267q-172 0 -172 66q0 14 8 27l156 215l-1 -1q19 35 64 51.5t117 16.5h276q201 0 207 -85zM813 616l-91 -131h-453l89 131h455zM364 279q-44 0 -67 -17l-118 -159q4 -4 35 -4l216 -1q24 3 41 17l-2 -1l119 160q-5 5 -24 5h-200z
" />
    <glyph glyph-name="FL00F6h" unicode="&#xf6;" horiz-adv-x="754" 
d="M797 291l-149 -214h1q-49 -76 -240 -76h-267q-172 0 -172 66q0 14 8 27l156 215l-1 -1q19 35 64 51.5t117 16.5h276q201 0 207 -85zM364 279q-44 0 -67 -17l-118 -159q4 -4 35 -4l216 -1q24 3 41 17l-2 -1l119 160q-5 5 -24 5h-200zM813 616l-91 -131h-195l89 131h197z
M555 616l-91 -131h-195l89 131h197z" />
    <glyph glyph-name="FL00F7h" unicode="&#xf7;" horiz-adv-x="574" 
d="M548 182h-548l84 98h541zM369 136l-71 -103h-188l88 126h161v-28zM494 418l-71 -103h-183l84 126h160v-28z" />
    <glyph glyph-name="Abreve" unicode="&#xf8;" horiz-adv-x="754" 
d="M364 270h200q16 0 24 -5l-27 -33h-281l17 22l-2 -2q22 18 69 18zM470 111h1q-14 -13 -41 -16l-216 1q-14 0 -22.5 0.5t-12.5 1.5l29 38h285q-5 -5 -10.5 -11.5t-12.5 -13.5zM648 74l149 207q-6 83 -207 83h-276q-144 0 -181 -66l1 1l-156 -208q-8 -13 -8 -27
q0 -63 172 -63h267q191 0 240 73h-1z" />
    <glyph glyph-name="FL00F9h" unicode="&#xf9;" horiz-adv-x="755" 
d="M534 489h120l-122 179h-184zM666 378l-71 -97v1l-125 -167h2q-17 -14 -41 -17h-1h1l-217 1q-31 0 -35 4l119 161v-1l91 115h-206l-49 -68l-156 -216q-8 -13 -8 -27q0 -66 172 -66h268q191 0 240 76h-1l147 210l60 91h-190z" />
    <glyph glyph-name="FL00FAh" unicode="&#xfa;" horiz-adv-x="755" 
d="M538 489l186 179h-184l-121 -179h119zM666 378l-71 -97v1l-125 -167h2q-18 -15 -42 -16h-216q-31 0 -35 4l119 161v-1l91 115h-206l-49 -68l-156 -216q-8 -13 -8 -27q0 -66 172 -66h268q191 0 240 76h-1l147 210l60 91h-190z" />
    <glyph glyph-name="FL00FBh" unicode="&#xfb;" horiz-adv-x="755" 
d="M569 480h106l24 188h-97l-274 -189l132 2l122 82zM666 378l-71 -97v1l-125 -167h2q-17 -14 -42 -17h1l-217 1q-31 0 -35 4l119 161v-1l91 115h-206l-49 -68l-156 -216q-8 -13 -8 -27q0 -66 172 -66h268q191 0 240 76h-1l147 210l60 91h-190z" />
    <glyph glyph-name="u" unicode="&#xfc;" horiz-adv-x="755" 
d="M563 616h-196l-90 -131h196zM826 616h-197l-90 -131h196zM666 376l-71 -96v1l-125 -167l2 1q-18 -15 -42 -16h-216q-31 0 -35 4l119 160v-1l91 114h-206l-49 -67l-156 -215q-8 -13 -8 -27q0 -66 172 -66h268q191 0 240 76h-1l147 209l60 90h-190z" />
    <glyph glyph-name="FL00FDh" unicode="&#xfd;" horiz-adv-x="759" 
d="M669 381h186l-55 -91l-147 -210l-51 -69l-52 -72q-59 -78 -172 -78h-575l75 95h421q32 1 56 8t40 23l-2 -3l12 18l-262 -1q-173 0 -173 66q0 15 8 28l157 218l49 68h202l-86 -115l-120 -162q4 -4 35 -4l219 -1l40 1l124 184zM541 493h-120l122 180h185z" />
    <glyph glyph-name="asciicircum" unicode="&#xfe;" horiz-adv-x="756" 
d="M517 166l-46 -53l1 1q-13 -14 -40 -17l-218 1q-30 0 -34 4l52 71h260q18 -2 25 -7zM650 76l76 106q-6 85 -207 85h-228l54 105h-175l-190 -276v1l-175 -231h183l107 136l316 -1q190 0 240 75h-1z" />
    <glyph glyph-name="FL00FFh" unicode="&#xff;" horiz-adv-x="759" 
d="M826 622h-198l-90 -133h197zM566 622h-198l-90 -133h197zM669 380l-71 -97l-124 -183l-40 -1l-219 1q-31 0 -35 4l120 162v-1l86 115h-202l-49 -68l-157 -217q-8 -14 -8 -28q0 -66 173 -66l262 1l-12 -18l2 3q-16 -16 -40 -23t-56 -8h-421l-75 -94h575q113 0 172 78
l52 71l51 69l147 209l55 91h-186z" />
    <glyph glyph-name="Aogonek" unicode="&#x104;" horiz-adv-x="525" 
 />
    <glyph glyph-name="aogonek" unicode="&#x105;" horiz-adv-x="525" 
 />
    <glyph glyph-name="Cacute" unicode="&#x106;" horiz-adv-x="525" 
 />
    <glyph glyph-name="FL0152h" unicode="&#x152;" horiz-adv-x="1548" 
d="M1128 441q-56 0 -99 -27l-70 -86h456l-79 -100h-450l-98 -130l-1 -2q0 1 30 1h621l-94 -99h-1169q-186 0 -207 67q-4 9 -4 23q0 18 8 31l235 316q72 70 192 96q25 2 52 3.5t55 3.5q5 1 13 1q10 0 15 1l1202 -1l-90 -98h-518zM506 440q-59 0 -99 -27l-241 -314
q-2 -2 -2 -5q2 2 31 1h390q1 13 9 25l236 316l4 4h-328zM165 98v1v-1z" />
    <glyph glyph-name="FL0153h" unicode="&#x153;" horiz-adv-x="1282" 
d="M1126 133h-413l-27 -35q6 -3 35 -3h462l-71 -94h-968q-174 0 -174 63q0 14 8 27l158 208l-1 -1q19 33 65.5 49.5t118.5 16.5h5l940 -1q66 0 66 -40q0 -18 -20 -47l1 1l-60 -94q-41 -50 -125 -50zM369 270q-45 0 -68 -16l-119 -155q6 -3 35 -3l268 -1l133 175h-249z
M1111 259l-2 -6l4 9q3 3 5.5 4.5t4.5 3.5q-1 -1 -12 -1h-238q-46 0 -70 -18l2 1l-19 -21h301z" />
    <glyph glyph-name="rcaron" unicode="&#x159;" horiz-adv-x="525" 
 />
    <glyph glyph-name="FL0160h" unicode="&#x160;" horiz-adv-x="912" 
d="M519 97q51 2 69 22l3 2l78 110h-509q-68 0 -68 42q0 17 20 46l93 126q68 84 192 97q32 4 65.5 5.5t67.5 1.5h573l-82 -100h-519q-56 0 -99 -28l-69 -87h507q74 0 74 -43q0 -18 -18 -43l-80 -114l-25 -35l1 1q-56 -102 -304 -102h-608l97 100zM859 851l133 2l-276 -191
h-99l25 190h107l-13 -85z" />
    <glyph glyph-name="FL0161h" unicode="&#x161;" horiz-adv-x="757" 
d="M472 115q16 18 23 26h-373q-64 0 -64 41q0 21 24 56l52 72l-1 -1q37 69 182 69h541l-62 -97h-429q-46 0 -69 -20l3 2l-18 -23h353q78 0 78 -46q0 -21 -16 -47l-45 -70q-49 -76 -240 -76l-508 1l87 97l442 -1h-1h1q24 3 41 17h-1zM682 667l133 2l-275 -189h-97l24 188h106
l-12 -84z" />
    <glyph glyph-name="bracketleft" unicode="&#x178;" horiz-adv-x="907" 
d="M888 544h203l-92 -125l-89 -106q-72 -84 -174 -84h-178l-112 -152l-61 -79h-188l168 233h-168q-98 0 -98 49q0 22 25 53l155 215h214l-97 -125v1l-66 -89h388zM954 768l-75 -109h-194l90 133h168v-30zM683 768l-75 -109h-195l91 133h168v-30z" />
    <glyph glyph-name="FL017Dh" unicode="&#x17d;" horiz-adv-x="910" 
d="M807 98l-87 -100h-747l63 96l706 355h-525l64 100h823l-92 -102l-701 -349h496zM857 851l133 2l-276 -191h-98l24 190h107l-12 -85z" />
    <glyph glyph-name="FL017Eh" unicode="&#x17e;" horiz-adv-x="757" 
d="M794 283l-514 -184h386l-65 -98l-689 1l77 94l530 190h-402l69 92h671zM682 667l133 2l-275 -189h-97l24 188h106l-13 -84z" />
    <glyph glyph-name="FL0192h" unicode="&#x192;" horiz-adv-x="761" 
d="M368 277q-23 0 -40.5 -5t-28.5 -13l-19 -22h338l-67 -100h-343l-89 -119l-210 -161h-231l289 218l158 218v-1q48 81 193 81h545l-65 -96h-430z" />
    <glyph glyph-name="FL02C6h" unicode="&#x2c6;" horiz-adv-x="248" 
d="M354 421h100l23 165h-92l-258 -166l124 2l115 72z" />
    <glyph glyph-name="FL02DCh" unicode="&#x2dc;" horiz-adv-x="690" 
d="M816 633h-444l-87 -106h443z" />
    <glyph glyph-name="FL2013h" unicode="&#x2013;" horiz-adv-x="339" 
d="M316 136l74 74h-308l-82 -73z" />
    <glyph glyph-name="FL2014h" unicode="&#x2014;" horiz-adv-x="704" 
d="M685 135l78 74h-678l-85 -72z" />
    <glyph glyph-name="FL2018h" unicode="&#x2018;" horiz-adv-x="229" 
d="M234 396l-142 212h144l139 -212h-141z" />
    <glyph glyph-name="mu" unicode="&#x2019;" horiz-adv-x="229" 
d="M232 396l143 212h-144l-139 -212h140z" />
    <glyph glyph-name="FL201Ah" unicode="&#x201a;" horiz-adv-x="264" 
d="M195 116h-190l-88 -118h84l-48 -64h114z" />
    <glyph glyph-name="FL201Ch" unicode="&#x201c;" horiz-adv-x="464" 
d="M247 395h149l-147 212h-152zM473 397h148l-146 212h-153z" />
    <glyph glyph-name="epsilon" unicode="&#x201d;" horiz-adv-x="464" 
d="M471 395l150 212h-152l-147 -212h149zM245 397l151 212h-153l-146 -212h148z" />
    <glyph glyph-name="FL201Eh" unicode="&#x201e;" horiz-adv-x="578" 
d="M492 116h-203l-93 -118h89l-52 -64h122zM208 116h-202l-94 -118h89l-51 -64h122z" />
    <glyph glyph-name="FL2020h" unicode="&#x2020;" horiz-adv-x="444" 
d="M497 346h151l90 73h-188l82 117h-208l-82 -114l-1 -3h-155l-91 -73h191l-163 -226l-90 -124h217l163 230z" />
    <glyph glyph-name="FL2021h" unicode="&#x2021;" horiz-adv-x="426" 
d="M499 142l88 73h-202l95 134h151l91 74h-190l84 117h-210l-83 -117h-155l-91 -74h191l-98 -134h-136l-91 -73h174l-103 -142h218l100 142h167z" />
    <glyph glyph-name="FL2022h" unicode="&#x2022;" horiz-adv-x="430" 
d="M378 299q49 0 57 -38l-123 -156q-26 -26 -61 -29h-214q-62 2 -65 38l123 159q35 26 88 26h195z" />
    <glyph glyph-name="FL2026h" unicode="&#x2026;" horiz-adv-x="1067" 
d="M214 104h-208l-96 -106h208zM887 104h-208l-96 -106h208zM543 104h-208l-96 -106h208z" />
    <glyph glyph-name="FL2030h" unicode="&#x2030;" horiz-adv-x="1563" 
d="M409 349l-1 -2q0 1 1 2zM956 181l-1 -2q0 1 1 2zM1441 182l-1 -2q0 1 1 2zM803 165h131h13l-46 -81q-4 -4 -25 -4h-144l45 79q4 6 26 6zM329 247h-144l46 80h-1q4 6 27 6h131q2 0 10 -2l-44 -79q-3 -5 -25 -5zM1361 80h-144l46 80h-1q4 6 27 6h131q2 0 10 -2l-44 -79
q-3 -5 -25 -5zM1520 54l68 118q8 13 8 27q0 22 -22 32l1 -1q-23 14 -63 14h-260q-92 0 -122 -50l-69 -120l1 1q-5 -6 -6 -12.5t-1 -12.5v-7q4 -42 82 -42h260q93 0 123 53zM1034 52l68 119q7 13 7 27q0 46 -82 46h-261q-8 0 -15.5 -0.5t-15.5 -1.5l285 145l-7 24h-137
l-394 -200q5 6 6 10l68 118q8 13 8 26q0 23 -22 33l1 -1q-23 14 -63 14h-260q-92 0 -122 -50l-69 -120l1 1q-5 -6 -6 -12.5t-1 -12.5v-7q4 -42 82 -42h260h16q7 0 17 2l-286 -145l7 -24h139l390 198l-3 -6l-69 -121l1 1q-8 -11 -8 -25v-6q8 -41 84 -41h259q90 0 122 51z" />
    <glyph glyph-name="FL2039h" unicode="&#x2039;" horiz-adv-x="327" 
d="M34 268l-14 -45l192 -166l23 72l-128 109l199 107l30 88z" />
    <glyph glyph-name="FL203Ah" unicode="&#x203a;" horiz-adv-x="307" 
d="M279 215l15 46l-192 166l-23 -72l128 -109l-199 -108l-31 -88z" />
    <glyph glyph-name="FL20ACh" unicode="&#x20ac;" horiz-adv-x="904" 
d="M1011 2h-830l724 536h179z" />
    <glyph glyph-name="FL2122h" unicode="&#x2122;" horiz-adv-x="1034" 
d="M894 434l-141 -198h-108l138 196l1 2h-63l-109 -144q0 -5 -6 -11l2 1l-37 -44h-121l55 70l112 152l39 53h378q31 -5 47 -18.5t16 -37.5q0 -2 -0.5 -6t-0.5 -6l-149 -207h-123l127 171l18 24l2 2v1h-21h-56zM453 451l-146 -214h-109l144 214h-140l43 60h381l-45 -60h-128z
" />
    </font>
</defs>
</svg>
