<svg width="95" height="95" viewBox="0 0 95 95" fill="none" xmlns="http://www.w3.org/2000/svg">
<g id="Group 1254">
<rect id="Rectangle 102" width="95" height="95" rx="10" fill="#111111"/>
<path id="Subtract" fill-rule="evenodd" clip-rule="evenodd" d="M20 39.8C20 31.5506 20 27.4259 22.1008 24.5344C22.7793 23.6005 23.6005 22.7793 24.5344 22.1008C27.4259 20 31.5506 20 39.8 20H55.2C63.4494 20 67.5741 20 70.4656 22.1008C71.3995 22.7793 72.2207 23.6005 72.8992 24.5344C75 27.4259 75 31.5506 75 39.8V55.2C75 63.4494 75 67.5741 72.8992 70.4656C72.2207 71.3995 71.3995 72.2207 70.4656 72.8992C67.5741 75 63.4494 75 55.2 75H39.8C31.5506 75 27.4259 75 24.5344 72.8992C23.6005 72.2207 22.7793 71.3995 22.1008 70.4656C20 67.5741 20 63.4494 20 55.2V39.8ZM47.501 32.9422C39.4609 32.9422 32.9422 39.4609 32.9422 47.501C32.9422 55.5411 39.4609 62.0598 47.501 62.0598C55.5411 62.0598 62.0598 55.5411 62.0598 47.501C62.0598 39.4609 55.5411 32.9422 47.501 32.9422ZM47.501 56.6003C42.4855 56.6003 38.4017 52.5165 38.4017 47.501C38.4017 42.4819 42.4855 38.4017 47.501 38.4017C52.5165 38.4017 56.6003 42.4819 56.6003 47.501C56.6003 52.5165 52.5165 56.6003 47.501 56.6003ZM67 32C67 33.6569 65.6569 35 64 35C62.3431 35 61 33.6569 61 32C61 30.3431 62.3431 29 64 29C65.6569 29 67 30.3431 67 32Z" fill="#DCDCDC"/>
</g>
</svg>
