<svg width="60" height="60" viewBox="0 0 60 60" fill="none" xmlns="http://www.w3.org/2000/svg">
<g id="Group 1255">
<rect id="Rectangle 103" width="60" height="60" rx="10" fill="#111111"/>
<path id="Vector" d="M23.6771 40.5674C23.5761 40.7897 23.4851 40.9211 23.4043 40.9615C23.3436 41.0019 23.2325 41.0221 23.0708 41.0221H20.0089C19.8674 41.0221 19.7563 41.0019 19.6754 40.9615C19.6148 40.9211 19.534 40.7897 19.4329 40.5674L11.3689 18.4065C11.2476 18.063 11.2274 17.8608 11.3083 17.8002C11.3891 17.7194 11.6114 17.679 11.9752 17.679H14.9158C15.1382 17.679 15.2897 17.7093 15.3706 17.7699C15.4514 17.8103 15.5323 17.9417 15.6131 18.164L21.4944 35.5046L27.4969 18.164C27.5777 17.9417 27.6586 17.8103 27.7394 17.7699C27.8405 17.7093 28.0022 17.679 28.2245 17.679H31.1954C31.539 17.679 31.7411 17.7194 31.8017 17.8002C31.8624 17.8811 31.8321 18.0832 31.7108 18.4065L23.6771 40.5674ZM43.8982 40.9918C43.6759 40.9918 43.5345 40.9716 43.4738 40.9312C43.4132 40.8907 43.3121 40.7594 43.1707 40.5371L37.0772 31.2301L35.4401 33.0491V40.4158C35.4401 40.6583 35.3896 40.82 35.2886 40.9009C35.1875 40.9817 35.0359 41.0221 34.8338 41.0221H31.9235C31.7011 41.0221 31.5394 40.9817 31.4385 40.9009C31.3576 40.82 31.3172 40.6583 31.3172 40.4158V18.2853C31.3172 17.8811 31.5193 17.679 31.9235 17.679H34.8338C35.238 17.679 35.4401 17.8811 35.4401 18.2853V27.2587L42.5644 18.1337C42.6654 18.0326 42.7462 17.9518 42.8069 17.8912C42.8675 17.8305 42.9888 17.8002 43.1707 17.8002H46.566C47.2734 17.8002 47.4149 18.0528 46.9905 18.5581L39.5025 28.0166L47.7787 40.3552C48.0818 40.7796 47.9505 40.9918 47.3846 40.9918H43.8982Z" fill="#DCDCDC"/>
</g>
</svg>
