<svg width="11" height="11" viewBox="0 0 11 11" fill="none" xmlns="http://www.w3.org/2000/svg">
<path id="Union" fill-rule="evenodd" clip-rule="evenodd" d="M10.6065 2.12129C10.997 1.73077 10.997 1.09759 10.6065 0.707073C10.2159 0.316555 9.58279 0.316555 9.19223 0.707073L5.65671 4.24258L2.12125 0.707104C1.73074 0.316586 1.09756 0.316586 0.707062 0.707104C0.316498 1.09762 0.316498 1.73079 0.707062 2.12132L4.24252 5.65678L0.70694 9.19235C0.316437 9.58288 0.316437 10.216 0.70694 10.6066C1.0975 10.9971 1.73068 10.9971 2.12119 10.6066L5.65677 7.071L9.19235 10.6066C9.58286 10.9971 10.216 10.9971 10.6065 10.6066C10.997 10.2161 10.997 9.58291 10.6065 9.19238L7.07095 5.65681L10.6065 2.12129Z" fill="#111111"/>
</svg>
