<svg width="18" height="18" viewBox="0 0 18 18" fill="none" xmlns="http://www.w3.org/2000/svg">
<g clip-path="url(#clip0_144_43)">
<path fill-rule="evenodd" clip-rule="evenodd" d="M8.03929 0.00341797C7.05721 0.00341797 6.14012 0.494233 5.59536 1.31137C5.2737 1.79386 5.10205 2.36077 5.10205 2.94066V8.19886C5.10205 8.84438 5.35848 9.46346 5.81493 9.91991C6.27138 10.3763 6.89046 10.6327 7.53598 10.6327H10.4653C11.1108 10.6327 11.7299 10.3763 12.1864 9.91991C12.6428 9.46346 12.8993 8.84438 12.8993 8.19887V2.94066C12.8993 2.36077 12.7276 1.79386 12.4059 1.31137C11.8612 0.494234 10.9441 0.00341797 9.96202 0.00341797H8.03929ZM6.42741 1.86607C6.7867 1.32713 7.39157 1.00342 8.03929 1.00342H9.96202C10.6097 1.00342 11.2146 1.32713 11.5739 1.86607C11.786 2.18429 11.8993 2.5582 11.8993 2.94066V8.19887C11.8993 8.57916 11.7482 8.94389 11.4793 9.2128C11.2104 9.48172 10.8456 9.63279 10.4653 9.63279H7.53598C7.15568 9.63279 6.79095 9.48172 6.52204 9.2128C6.25312 8.94389 6.10205 8.57916 6.10205 8.19886V2.94066C6.10205 2.5582 6.21526 2.18429 6.42741 1.86607ZM4.2226 10.5169C4.43474 10.3401 4.4634 10.0248 4.28662 9.8127C4.10984 9.60056 3.79455 9.5719 3.58242 9.74868L0.54363 12.281C0.201641 12.566 0.00390625 12.9881 0.00390625 13.4333V16.4964C0.00390625 17.3248 0.675479 17.9964 1.50391 17.9964H16.4969C17.3253 17.9964 17.9969 17.3248 17.9969 16.4964V13.4333C17.9969 12.9881 17.7992 12.566 17.4572 12.281L14.4184 9.74868C14.2063 9.5719 13.891 9.60056 13.7142 9.8127C13.5374 10.0248 13.5661 10.3401 13.7782 10.5169L16.817 13.0492C16.931 13.1442 16.9969 13.2849 16.9969 13.4333V16.4964C16.9969 16.7725 16.7731 16.9964 16.4969 16.9964H1.50391C1.22776 16.9964 1.00391 16.7725 1.00391 16.4964V13.4333C1.00391 13.2849 1.06982 13.1442 1.18381 13.0492L4.2226 10.5169Z" fill="#111111"/>
</g>
<defs>
<clipPath id="clip0_144_43">
<rect width="18" height="18" fill="white"/>
</clipPath>
</defs>
</svg>
