<svg width="60" height="60" viewBox="0 0 60 60" fill="none" xmlns="http://www.w3.org/2000/svg">
<g id="Group 1256">
<rect id="Rectangle 104" width="60" height="60" rx="10" fill="#111111"/>
<path id="Subtract" fill-rule="evenodd" clip-rule="evenodd" d="M51.0226 12.2008L43.4312 48.716C43.2524 49.5782 42.2414 49.9688 41.5281 49.4505L31.1651 41.9268C30.5361 41.47 29.6782 41.4943 29.0759 41.9853L23.3303 46.6689C22.6636 47.2142 21.6587 46.9103 21.4034 46.089L17.4139 33.2585L7.10654 29.4117C6.05952 29.0195 6.05057 27.5413 7.09461 27.1392L49.3961 10.8204C50.2928 10.4736 51.218 11.2592 51.0226 12.2008ZM20.7602 31.2106L40.9045 18.8038C41.2664 18.5816 41.639 19.0711 41.3277 19.3594L24.703 34.8129C24.1185 35.3566 23.7418 36.085 23.6349 36.8751L23.0688 41.0719C22.9934 41.6321 22.2067 41.6875 22.0518 41.1453L19.8738 33.4924C19.6247 32.6194 19.9881 31.687 20.7602 31.2106Z" fill="#DCDCDC"/>
</g>
</svg>
