<svg width="18" height="18" viewBox="0 0 18 18" fill="none" xmlns="http://www.w3.org/2000/svg">
<path id="Union" fill-rule="evenodd" clip-rule="evenodd" d="M8.03929 0.003479C7.05721 0.003479 6.14012 0.494294 5.59536 1.31143C5.2737 1.79392 5.10205 2.36083 5.10205 2.94072V8.19892C5.10205 8.84444 5.35848 9.46352 5.81493 9.91997C6.27138 10.3764 6.89046 10.6328 7.53598 10.6328H10.4653C11.1108 10.6328 11.7299 10.3764 12.1864 9.91997C12.6428 9.46352 12.8993 8.84444 12.8993 8.19893V2.94072C12.8993 2.36083 12.7276 1.79392 12.4059 1.31143C11.8612 0.494295 10.9441 0.003479 9.96202 0.003479H8.03929ZM6.42741 1.86613C6.7867 1.32719 7.39157 1.00348 8.03929 1.00348H9.96202C10.6097 1.00348 11.2146 1.32719 11.5739 1.86613C11.786 2.18435 11.8993 2.55826 11.8993 2.94072V8.19893C11.8993 8.57922 11.7482 8.94395 11.4793 9.21286C11.2104 9.48178 10.8456 9.63285 10.4653 9.63285H7.53598C7.15568 9.63285 6.79095 9.48178 6.52204 9.21286C6.25312 8.94395 6.10205 8.57922 6.10205 8.19892V2.94072C6.10205 2.55826 6.21526 2.18435 6.42741 1.86613ZM4.2226 10.517C4.43474 10.3402 4.4634 10.0249 4.28662 9.81276C4.10984 9.60062 3.79455 9.57196 3.58242 9.74874L0.54363 12.2811C0.201641 12.5661 0.00390625 12.9882 0.00390625 13.4334V16.4965C0.00390625 17.3249 0.675479 17.9965 1.50391 17.9965H16.4969C17.3253 17.9965 17.9969 17.3249 17.9969 16.4965V13.4334C17.9969 12.9882 17.7992 12.5661 17.4572 12.2811L14.4184 9.74874C14.2063 9.57196 13.891 9.60062 13.7142 9.81276C13.5374 10.0249 13.5661 10.3402 13.7782 10.517L16.817 13.0493C16.931 13.1443 16.9969 13.285 16.9969 13.4334V16.4965C16.9969 16.7726 16.7731 16.9965 16.4969 16.9965H1.50391C1.22776 16.9965 1.00391 16.7726 1.00391 16.4965V13.4334C1.00391 13.285 1.06982 13.1443 1.18381 13.0493L4.2226 10.517Z" fill="#DCDCDC"/>
</svg>
