<svg width="60" height="60" viewBox="0 0 60 60" fill="none" xmlns="http://www.w3.org/2000/svg">
<g id="Frame 1237">
<g id="Group 1254">
<path id="Subtract" fill-rule="evenodd" clip-rule="evenodd" d="M10 0C4.47715 0 0 4.47714 0 9.99999V50.0008C0 55.5236 4.47715 60.0008 10 60.0008H50C55.5228 60.0008 60 55.5237 60 50.0008V10C60 4.47715 55.5228 0 50 0H10ZM13.7476 18.8002C12.6299 21.0865 12.6299 24.0577 12.6299 30C12.6299 35.9424 12.6299 38.9135 13.7476 41.1998C14.8225 43.3986 16.6 45.1761 18.7987 46.251C21.085 47.3687 24.0561 47.3687 29.9983 47.3687C35.9405 47.3687 38.9116 47.3687 41.1979 46.251C43.3966 45.1761 45.1741 43.3986 46.249 41.1998C47.3667 38.9135 47.3667 35.9424 47.3667 30C47.3667 24.0577 47.3667 21.0865 46.249 18.8002C45.1741 16.6014 43.3966 14.8239 41.1979 13.749C38.9116 12.6313 35.9405 12.6313 29.9983 12.6313C24.0561 12.6313 21.085 12.6313 18.7987 13.749C16.6 14.8239 14.8225 16.6014 13.7476 18.8002ZM20.8032 30.0003C20.8032 24.9221 24.9205 20.8049 29.9988 20.8049C35.077 20.8049 39.1943 24.9221 39.1943 30.0003C39.1943 35.0785 35.077 39.1957 29.9988 39.1957C24.9205 39.1957 20.8032 35.0785 20.8032 30.0003ZM24.2515 30.0003C24.2515 33.1681 26.8309 35.7474 29.9988 35.7474C33.1666 35.7474 35.746 33.1681 35.746 30.0003C35.746 26.8302 33.1666 24.2532 29.9988 24.2532C26.8309 24.2532 24.2515 26.8302 24.2515 30.0003ZM40.418 22.1049C41.4645 22.1049 42.3128 21.2566 42.3128 20.2101C42.3128 19.1636 41.4645 18.3153 40.418 18.3153C39.3715 18.3153 38.5232 19.1636 38.5232 20.2101C38.5232 21.2566 39.3715 22.1049 40.418 22.1049Z" fill="#111111"/>
</g>
</g>
</svg>
