<svg width="95" height="95" viewBox="0 0 95 95" fill="none" xmlns="http://www.w3.org/2000/svg">
<g id="Group 1256">
<rect id="Rectangle 104" width="95" height="95" rx="10" fill="#111111"/>
<path id="Subtract" fill-rule="evenodd" clip-rule="evenodd" d="M80.7848 19.318L68.7651 77.1338C68.482 78.4988 66.8813 79.1174 65.7519 78.2967L49.3438 66.3842C48.3478 65.6608 46.9895 65.6993 46.0359 66.4768L36.9387 73.8924C35.883 74.7558 34.292 74.2746 33.8878 72.9744L27.571 52.6594L11.251 46.5686C9.59326 45.9475 9.57909 43.6071 11.2322 42.9704L78.2094 17.1323C79.6293 16.5832 81.0942 17.8271 80.7848 19.318ZM32.8702 49.4171L64.7654 29.7731C65.3383 29.4212 65.9283 30.1963 65.4355 30.6527L39.1131 55.1208C38.1876 55.9817 37.5911 57.1349 37.4218 58.386L36.5256 65.0308C36.4062 65.9178 35.1605 66.0055 34.9152 65.1471L31.4668 53.03C31.0724 51.6478 31.6478 50.1715 32.8702 49.4171Z" fill="#DCDCDC"/>
</g>
</svg>
